<svg xmlns="http://www.w3.org/2000/svg" xmlns:xlink="http://www.w3.org/1999/xlink" viewBox="0 0 961.62 484.99"><defs><style>.cls-1{fill:none;}.cls-2{fill:url(#Degradado_sin_nombre_2);}.cls-3{fill:#f1f1f1;}.cls-4{fill:#ff7110;}.cls-5{fill:#706f71;}.cls-6{clip-path:url(#clip-path);}.cls-7{fill:url(#Degradado_sin_nombre_6);}.cls-8{clip-path:url(#clip-path-2);}.cls-9{fill:url(#Degradado_sin_nombre_3);}.cls-10{clip-path:url(#clip-path-3);}.cls-11{fill:url(#radial-gradient);}.cls-12{clip-path:url(#clip-path-4);}.cls-13{fill:url(#radial-gradient-2);}</style><linearGradient id="Degradado_sin_nombre_2" x1="1829.58" y1="-235.43" x2="1859.23" y2="-235.43" gradientTransform="matrix(-0.96, 0.28, 0.28, 0.96, 2215.06, -236.25)" gradientUnits="userSpaceOnUse"><stop offset="0.04" stop-color="#9f1c27"/><stop offset="0.1" stop-color="#a52128" stop-opacity="0.82"/><stop offset="0.21" stop-color="#ae272a" stop-opacity="0.57"/><stop offset="0.33" stop-color="#b62d2b" stop-opacity="0.36"/><stop offset="0.45" stop-color="#bc312d" stop-opacity="0.2"/><stop offset="0.57" stop-color="#c0342d" stop-opacity="0.09"/><stop offset="0.69" stop-color="#c2352e" stop-opacity="0.02"/><stop offset="0.84" stop-color="#c3362e" stop-opacity="0"/><stop offset="1" stop-color="#c84f24" stop-opacity="0"/></linearGradient><clipPath id="clip-path" transform="translate(0 13.27)"><path class="cls-1" d="M385,7.22c18.15,19.2,34.23,43.69,46.87,71.83l-3.4,2.5c-11.77-11.45-23-20.07-35.63-26,.83,4.79,1.48,9.52,1.85,13.32L296.77,49c12-19.3,35.26-38.23,62.56-47.59q.6-.21,1.23-.39c8.11-2.36,17.65-1,24.43,6.16"/></clipPath><radialGradient id="Degradado_sin_nombre_6" cx="5628.65" cy="-417.15" r="1.13" gradientTransform="translate(437495.06 -132478.37) rotate(167.37) scale(80.93)" gradientUnits="userSpaceOnUse"><stop offset="0" stop-color="#c3362e"/><stop offset="0.05" stop-color="#b82e2c"/><stop offset="0.15" stop-color="#aa2429"/><stop offset="0.27" stop-color="#a11e27"/><stop offset="0.48" stop-color="#9f1c27"/><stop offset="0.58" stop-color="#a81823"/><stop offset="0.86" stop-color="#bf0e1a"/><stop offset="0.89" stop-color="#c0131b"/><stop offset="0.93" stop-color="#c2201d"/><stop offset="0.97" stop-color="#c53720"/><stop offset="1" stop-color="#c84f24"/></radialGradient><clipPath id="clip-path-2" transform="translate(0 13.27)"><path class="cls-2" d="M392.83,55.55c.83,4.79,1.48,9.52,1.85,13.32L366,63.05,386.29,26.5c2.8,9.3,5.54,23.37,6.54,29.05"/></clipPath><linearGradient id="Degradado_sin_nombre_3" x1="5477.88" y1="-295.04" x2="5479.05" y2="-294.96" gradientTransform="translate(93375.15 32602.16) rotate(-157.63) scale(17.96)" gradientUnits="userSpaceOnUse"><stop offset="0.04" stop-color="#c3362e"/><stop offset="0.07" stop-color="#c3332c" stop-opacity="0.91"/><stop offset="0.17" stop-color="#c22927" stop-opacity="0.67"/><stop offset="0.27" stop-color="#c12123" stop-opacity="0.47"/><stop offset="0.37" stop-color="#c01a20" stop-opacity="0.3"/><stop offset="0.48" stop-color="#c0151d" stop-opacity="0.17"/><stop offset="0.59" stop-color="#bf111b" stop-opacity="0.07"/><stop offset="0.71" stop-color="#bf0f1a" stop-opacity="0.02"/><stop offset="0.84" stop-color="#bf0e1a" stop-opacity="0"/><stop offset="1" stop-color="#bf0e1a" stop-opacity="0"/></linearGradient><clipPath id="clip-path-3" transform="translate(0 13.27)"><path class="cls-1" d="M429.91,73.13a12.92,12.92,0,1,1-.77.21l.77-.21"/></clipPath><radialGradient id="radial-gradient" cx="5515.41" cy="-426.37" r="0.64" gradientTransform="translate(140616.01 -10775.72) rotate(179.99) scale(25.42)" gradientUnits="userSpaceOnUse"><stop offset="0" stop-color="#fff"/><stop offset="0.27" stop-color="#fcfcfc"/><stop offset="0.46" stop-color="#f4f3f3"/><stop offset="0.63" stop-color="#e5e4e3"/><stop offset="0.78" stop-color="#d1cfce"/><stop offset="0.92" stop-color="#b7b4b1"/><stop offset="1" stop-color="#a4a09d"/></radialGradient><clipPath id="clip-path-4" transform="translate(0 13.27)"><path class="cls-1" d="M295.06,49.28c10-2.29,29.15-2.94,52.54,1.48,16.48,3.12,36,10.43,45.15,16.27a20.26,20.26,0,0,1,7.12,9.28A55.22,55.22,0,0,1,402.8,97c-.32,3.8-5.67,5-5.72,4.49-.77-4.43-25.59-14.77-56.73-21s-57.38-6-59.75-2.21c-.46.8-3.61-2.17-3.15-4.79a46.59,46.59,0,0,1,7.62-17.77,14.74,14.74,0,0,1,8.55-6.16c.45-.13.94-.24,1.44-.34"/></clipPath><radialGradient id="radial-gradient-2" cx="5638.91" cy="-416.24" r="1.13" gradientTransform="matrix(-100.81, 0, 0, -100.81, 568849.88, -41949.77)" gradientUnits="userSpaceOnUse"><stop offset="0" stop-color="#fff"/><stop offset="0.67" stop-color="#fff"/><stop offset="0.76" stop-color="#fff"/><stop offset="0.81" stop-color="#faf9f9"/><stop offset="0.87" stop-color="#ebeae9"/><stop offset="0.94" stop-color="#d2d0ce"/><stop offset="1" stop-color="#bab6b4"/></radialGradient></defs><g id="Capa_2" data-name="Capa 2"><g id="Capa_1-2" data-name="Capa 1"><ellipse class="cls-3" cx="340.11" cy="85.56" rx="12.83" ry="63.79" transform="translate(191.11 416.31) rotate(-78.98)"/><path class="cls-4" d="M286,235.44c0-30.41,16.46-77.06,32.71-109.55a215.64,215.64,0,0,0-25.63-2.51C239.75,181.7,164.78,271.05,118.54,271.05c-21,0-50.4-18.11-50.4-48.11,0-56.23,110.39-106.85,201.82-106.85,5.41,0,11,0,16.25.43,26.24-25,52.27-54.15,68.1-71.65,10-11.25,18.33-21.25,18.54-26.25a4.52,4.52,0,0,0-2.5-4.37,1.74,1.74,0,0,1,1.24-.42c5,0,11.46,5.21,16,11.67,1.67,2.29,8.13,11.87,6,15.41-17.49,20.42-36.86,54.56-51.23,84.14,17.91,5.21,33.32,11.66,45.19,20,.63.42,0,2.5-1.45,1.67a188.38,188.38,0,0,0-45.83-16.87c-25.2,55.4-34.36,90.8-34.36,112,0,7.92.62,19.79,11.46,19.79,9.79,0,23.12-7.5,26-9.57,1.67-1.26,2.08-.21.84,1.66-3.75,5-14.37,16.24-22.08,16.24C296.41,270,286,248.77,286,235.44ZM279.54,123c-2.91,0-6-.2-8.75-.2-89.14.2-188.91,70.6-188.91,110.8,0,18.54,12.92,22.28,21.87,22.28C140.82,255.85,211.64,194,279.54,123Zm18.74-5.62c7.29.62,16,1.87,23.33,3.12,14.79-29.78,34.37-63.95,50-89.56C349.94,59.65,324.94,89.86,298.28,117.35Z" transform="translate(0 13.27)"/><path class="cls-5" d="M427,202.53c0,.62.2,1,1,1,4.37,0,39.56-28.53,67.26-55.4,1.47-1.45,3.13,0,2.09,1.46-4.58,6-14.58,17.49-28.32,31.87S430.54,219,424.29,219c-2.92,0-6-1.67-9.17-4.38-5-4.37-9.16-10.21-9-14.16a9.78,9.78,0,0,1,.84-3.34c2.29-6,8.75-17.07,17.07-29.78l-10.83,10.2c-23.11,21.46-47.68,41.24-55.81,41.24-5.83,0-18.75-12.7-19.58-22.49-.21-4.16,1.46-9.58,4.59-15.41,14.16-26.87,62.27-69.77,91.22-73.73a22.41,22.41,0,0,1,2.5-.21c8.95,0,17.91,6.46,21,13.13C474.9,95.47,494.26,67.57,502,53.41c4.58-8.54,6.46-15.42,2.71-17.3-.2,0,1.67-1.66,6.88,2.72,4.16,3.53,12.91,16,12.7,19a3,3,0,0,1-.42,1.25l-52.9,74.77C469.69,135.46,427,193.78,427,202.53Zm-71.86.21a1.29,1.29,0,0,0,1.46,1.45c7.08,0,56.86-30.19,79.14-57.69,4.16-6,16-21.45,16-25.61,0-2.5-2.71-4.16-5-4.16-25.2,0-67.28,48.11-80.81,66.65C357.22,195.45,354.93,200.45,355.14,202.74Z" transform="translate(0 13.27)"/><path class="cls-5" d="M525.51,160.87c31.87-11,56.23-14.15,70.19-16.24,1.67-.2,1.25,1.46.21,1.87-11.46,3.76-31.86,7.5-59.57,19,9.58,4.16,17.7,9,17.7,15,0,5-1.87,10.62-11.24,18.34C527,210.87,502.19,221.48,483,221.48c-11.66,0-25.2-13.95-23.33-21.24,2.09-7.7,19.79-20.83,40.62-29.36,6.25-2.71,12.5-5,18.33-7.51-11.87-4.16-24.58-8.33-24.58-17.9,0-17.29,41.87-39.37,65.61-39.37,12.5,0,22.5,12.29,22.29,18.11-.22,9.8-21.45,16.88-27.08,18.34-1.25.41-1.88-.84-1.25-1.46,3.75-3.75,19.79-16.66,19.37-21.25,0-.83-.83-1.87-3.54-1.87-20.83,0-60.19,25.42-60.19,35.2C509.27,156.5,522.39,159.63,525.51,160.87Zm5,7.09c-7.28,3.13-15,6.66-22.91,10.83-25.2,13.11-38.73,26.66-38.73,30.82,0,.63.83.63,1.66.63,9,0,31.86-11.25,48.53-21,9.16-5.21,17.07-11,18.54-14.78C539.05,171.09,535.3,169.62,530.51,168Z" transform="translate(0 13.27)"/><path class="cls-5" d="M690.25,140.26C671.72,163,648.18,198.15,648,202.53c0,.62.21,1,1,1,4.38,0,39.58-28.53,67.28-55.4,1.45-1.45,3.12,0,2.08,1.46-4.58,6-14.58,17.49-28.33,31.87S651.51,219,645.26,219c-7.91,0-17.91-13.76-17.91-21.67,0-6.66,16.66-28.95,27.08-43.32-24.16,26-60,58.32-72.07,64.56a2.74,2.74,0,0,1-1,.21c-4,0-8.12-2.7-11.87-6.86-5-5.63-8.75-11.88-8.75-17.71,0-7.71,24.79-39.57,46.87-68.52,3.32-4.38,6.87-10,7.7-13.33.63-2.91-1.25-4.17-3.33-4.58.42-.21,4.16-1.67,9.16,2.91,8.75,7.92,10,16.66,9.79,19.58a2.77,2.77,0,0,1-.42,1.25s-14.78,16.66-22.7,26.45c-16.24,20.21-27.91,38.75-27.91,42.9,0,.84.42,2.09,1.67,2.09,7.08,0,77.9-56.86,93.51-76.44,3.34-4.17,7.71-10.42,7.3-15.83a3.33,3.33,0,0,0-1.88-3.33c-.21,0,4-.84,9,3.75,7.91,7.29,10.2,14.79,10,17.7a3,3,0,0,1-.42,1.26S695,134.22,690.25,140.26Z" transform="translate(0 13.27)"/><path class="cls-5" d="M731.28,126.09c5.21-8.12,8.13-16,4.37-17.91-.2,0,1.67-1.67,6.88,2.7,4.17,3.55,10.83,12.93,10.83,16.46,0,4-21.25,30-37.7,52.7,8.33-10.21,18.54-21.24,27.91-30.83,8.75-9,44.36-41.24,52.48-41.24,1.05,0,2.51-.41,6.47,3.13,5.2,4.59,11.66,14.79,11.45,17.7a3,3,0,0,1-.42,1.26c-14.79,14.78-29.36,35-41.45,52.89,8.75-11,19.58-23.12,29.58-33.52,8.33-8.55,43.74-39.38,53.32-41.87a5.23,5.23,0,0,1,2.71,0c1.66.41,3.33,1.88,5,3.54,4.17,4.16,11.46,15,11.25,17.7a2.89,2.89,0,0,1-.42,1.26s-15.2,17.49-23.12,27.27c-7.08,8.55-28.74,37.5-28.74,45.2,0,.62.21,1,1,1,4.58,0,39.16-28.32,67.28-55.4,1.45-1.45,2.91.21,1.88,1.66-4.59,5.84-15.63,18.75-28.13,31.67C850.21,195.24,825.63,219,819,219c-7.92,0-19-13.76-18.33-21.67a7.47,7.47,0,0,1,.42-2.08c5.21-14.16,33.32-50.61,53.94-77.06-5,2.29-26.66,13.54-49.16,36.45-17.7,17.91-43.73,45-46.24,55.41.22.61.43,1,1,1.24,1.88.63-.42,2.08-2.71,1.67S745,200,746.49,193.78c4-16.65,30-50.39,49.36-76.43-4.58,1.87-24.37,13.54-48.11,37.07-18.75,18.74-55.82,57.7-50.62,60.81.21.21.21.21.43.21,1.87.63-.43,2.08-2.71,1.67S682.75,204.19,683.79,198C685.88,186.29,714.83,151.3,731.28,126.09Z" transform="translate(0 13.27)"/><path class="cls-5" d="M381.78,241.73a6.39,6.39,0,0,0-1.41-1.19,12.79,12.79,0,0,0-2-1,13.88,13.88,0,0,0-2.41-.75,12.57,12.57,0,0,0-2.71-.29q-3.66,0-5.37,1.37a4.59,4.59,0,0,0-1.7,3.76,4.23,4.23,0,0,0,.49,2.12,4.06,4.06,0,0,0,1.52,1.43,11.81,11.81,0,0,0,2.59,1c1,.29,2.25.6,3.66.92a38.54,38.54,0,0,1,4.39,1.22,12.59,12.59,0,0,1,3.36,1.7,6.85,6.85,0,0,1,2.12,2.47,8,8,0,0,1,.73,3.58,8.14,8.14,0,0,1-.89,3.9,7.83,7.83,0,0,1-2.4,2.74,10.55,10.55,0,0,1-3.6,1.59,18.85,18.85,0,0,1-4.5.51,20.8,20.8,0,0,1-6.87-1.13,19,19,0,0,1-5.89-3.29l1.9-3.35a10.5,10.5,0,0,0,1.83,1.5,15,15,0,0,0,2.56,1.35,19.29,19.29,0,0,0,3.09,1,15.62,15.62,0,0,0,3.46.37A9.64,9.64,0,0,0,379,262a4.4,4.4,0,0,0,1.26-5.81,5,5,0,0,0-1.74-1.56,13.77,13.77,0,0,0-2.85-1.17c-1.13-.34-2.42-.69-3.86-1a36.49,36.49,0,0,1-4.2-1.24,11.41,11.41,0,0,1-3-1.59,5.85,5.85,0,0,1-1.83-2.25,7.33,7.33,0,0,1-.62-3.18,9,9,0,0,1,.84-4,8.28,8.28,0,0,1,2.34-2.91,10.16,10.16,0,0,1,3.57-1.79,16.16,16.16,0,0,1,14.79,3Z" transform="translate(0 13.27)"/><path class="cls-5" d="M399.7,266.94a11.32,11.32,0,0,1-4.74-1,11.45,11.45,0,0,1-3.67-2.61,11.72,11.72,0,0,1-2.36-3.79,12.71,12.71,0,0,1,0-9.14,12.12,12.12,0,0,1,2.39-3.8,11.3,11.3,0,0,1,8.36-3.57,11.4,11.4,0,0,1,4.73,1,11.25,11.25,0,0,1,3.68,2.6,12.12,12.12,0,0,1,2.39,3.8,12.71,12.71,0,0,1,0,9.14,11.44,11.44,0,0,1-2.38,3.79,11.65,11.65,0,0,1-3.69,2.61A11.33,11.33,0,0,1,399.7,266.94Zm-7.63-11.88a9.2,9.2,0,0,0,.59,3.36,8.41,8.41,0,0,0,1.64,2.69,7.65,7.65,0,0,0,2.42,1.81,7,7,0,0,0,6,0,7.68,7.68,0,0,0,2.45-1.83,8.52,8.52,0,0,0,1.66-2.74,9.68,9.68,0,0,0,0-6.71,8.58,8.58,0,0,0-1.66-2.73,7.71,7.71,0,0,0-2.45-1.84,6.84,6.84,0,0,0-3-.66,6.62,6.62,0,0,0-3,.69A7.77,7.77,0,0,0,394.3,249a8.65,8.65,0,0,0-1.64,2.74A9.33,9.33,0,0,0,392.07,255.06Z" transform="translate(0 13.27)"/><path class="cls-5" d="M416.17,234.27h3.89v26.27a2.81,2.81,0,0,0,.68,2,2.54,2.54,0,0,0,1.92.73,5.42,5.42,0,0,0,1.15-.16,10.61,10.61,0,0,0,1.24-.37l.61,3.13a11.63,11.63,0,0,1-2.29.66,12,12,0,0,1-2.34.27,4.47,4.47,0,0,1-4.86-4.86Z" transform="translate(0 13.27)"/><path class="cls-5" d="M435.82,266.94a6.47,6.47,0,0,1-5.48-2.43q-1.84-2.43-1.85-7.24V243.45h3.88v13.07c0,4.71,1.64,7.07,4.9,7.07a7.44,7.44,0,0,0,4.48-1.53,9,9,0,0,0,3.12-4.17V243.45h3.88v18.28c0,.91.41,1.38,1.24,1.41v3.36c-.44.06-.79.09-1,.11l-.73,0a2.83,2.83,0,0,1-1.92-.68,2.32,2.32,0,0,1-.81-1.7l-.09-2.7a10.74,10.74,0,0,1-4.06,4A11.2,11.2,0,0,1,435.82,266.94Z" transform="translate(0 13.27)"/><path class="cls-5" d="M453.7,254.93a12.55,12.55,0,0,1,.84-4.59,11.09,11.09,0,0,1,2.38-3.77,11.54,11.54,0,0,1,3.69-2.57,11.7,11.7,0,0,1,4.79-.94,11.11,11.11,0,0,1,5.93,1.52,9.83,9.83,0,0,1,3.78,4.08l-3.8,1.19a6.33,6.33,0,0,0-2.47-2.53,7,7,0,0,0-3.53-.91,7.28,7.28,0,0,0-3,.64,7.08,7.08,0,0,0-2.43,1.79,8.64,8.64,0,0,0-1.61,2.69,9.78,9.78,0,0,0,0,6.8,9,9,0,0,0,1.65,2.76,7.71,7.71,0,0,0,2.43,1.83,6.88,6.88,0,0,0,3,.67,7.24,7.24,0,0,0,2-.29,7.77,7.77,0,0,0,1.81-.77,7.06,7.06,0,0,0,1.44-1.13,3.93,3.93,0,0,0,.88-1.39l3.8,1.15a8.49,8.49,0,0,1-1.48,2.34,9.61,9.61,0,0,1-2.23,1.81,12.56,12.56,0,0,1-2.85,1.19,12.27,12.27,0,0,1-3.29.44,11.46,11.46,0,0,1-4.77-1,11.5,11.5,0,0,1-6.11-6.42A12.39,12.39,0,0,1,453.7,254.93Z" transform="translate(0 13.27)"/><path class="cls-5" d="M479.7,239.13v-4.86h3.89v4.86Zm0,27.37V243.45h3.89V266.5Z" transform="translate(0 13.27)"/><path class="cls-5" d="M499.92,266.94a11.33,11.33,0,0,1-4.75-1,11.43,11.43,0,0,1-6-6.4,12.71,12.71,0,0,1,0-9.14,12.1,12.1,0,0,1,2.38-3.8,11.42,11.42,0,0,1,3.67-2.6,11.2,11.2,0,0,1,4.7-1,11.32,11.32,0,0,1,4.72,1,11.19,11.19,0,0,1,3.69,2.6,12.12,12.12,0,0,1,2.39,3.8,12.71,12.71,0,0,1,0,9.14,11.46,11.46,0,0,1-2.39,3.79,11.72,11.72,0,0,1-3.68,2.61A11.33,11.33,0,0,1,499.92,266.94Zm-7.64-11.88a9.2,9.2,0,0,0,.6,3.36,8.57,8.57,0,0,0,1.63,2.69,7.58,7.58,0,0,0,2.43,1.81,7,7,0,0,0,6,0,7.79,7.79,0,0,0,2.45-1.83,8.52,8.52,0,0,0,1.66-2.74,9.83,9.83,0,0,0,0-6.71,8.58,8.58,0,0,0-1.66-2.73,7.82,7.82,0,0,0-2.45-1.84,6.87,6.87,0,0,0-3-.66,6.62,6.62,0,0,0-3,.69,7.7,7.7,0,0,0-2.43,1.85,8.82,8.82,0,0,0-1.63,2.74A9.33,9.33,0,0,0,492.28,255.06Z" transform="translate(0 13.27)"/><path class="cls-5" d="M536.3,266.5h-3.89V253.61q0-3.71-1.12-5.39a3.83,3.83,0,0,0-3.42-1.68,6.56,6.56,0,0,0-2.39.47,9.64,9.64,0,0,0-2.25,1.26,8.73,8.73,0,0,0-1.85,1.89,8.08,8.08,0,0,0-1.19,2.43V266.5H516.3V243.45h3.53v5a10.12,10.12,0,0,1,3.95-3.89,11.27,11.27,0,0,1,5.63-1.45,6.84,6.84,0,0,1,3.31.72,5.61,5.61,0,0,1,2.12,2,9,9,0,0,1,1.13,3.06,21,21,0,0,1,.33,3.84Z" transform="translate(0 13.27)"/><path class="cls-5" d="M552.55,266.94a11.78,11.78,0,0,1-4.77-.95,11.24,11.24,0,0,1-3.71-2.58,11.87,11.87,0,0,1-2.41-3.82,12.76,12.76,0,0,1,0-9.21,11.51,11.51,0,0,1,10.93-7.32,11.29,11.29,0,0,1,8.39,3.55,11.54,11.54,0,0,1,2.32,3.75,12.47,12.47,0,0,1,.81,4.44c0,.32,0,.62,0,.88a3.82,3.82,0,0,1-.07.62H544.91a9.07,9.07,0,0,0,.79,3.14,8,8,0,0,0,1.72,2.42,7.89,7.89,0,0,0,2.41,1.59,7.09,7.09,0,0,0,2.85.58,7.55,7.55,0,0,0,2.07-.29,9.11,9.11,0,0,0,1.9-.77,6.61,6.61,0,0,0,1.57-1.2,5.1,5.1,0,0,0,1-1.58l3.35.92a8.08,8.08,0,0,1-1.57,2.34,10,10,0,0,1-2.29,1.83,11.91,11.91,0,0,1-2.89,1.22A12.53,12.53,0,0,1,552.55,266.94Zm7.9-13.51a8.2,8.2,0,0,0-.82-3,8,8,0,0,0-1.72-2.37,7.77,7.77,0,0,0-2.41-1.52,8,8,0,0,0-5.82,0,7.33,7.33,0,0,0-2.41,1.55,7.91,7.91,0,0,0-1.68,2.36,8.84,8.84,0,0,0-.77,3Z" transform="translate(0 13.27)"/><path class="cls-5" d="M576.52,266.94a18,18,0,0,1-5.48-.86,13.55,13.55,0,0,1-4.63-2.49l1.68-2.61a16.34,16.34,0,0,0,4.06,2.32,12,12,0,0,0,4.28.77,7.11,7.11,0,0,0,4-1,3.19,3.19,0,0,0,1.47-2.81,2.55,2.55,0,0,0-.39-1.43,3.45,3.45,0,0,0-1.2-1,9.56,9.56,0,0,0-2-.79c-.82-.24-1.78-.49-2.87-.75-1.38-.36-2.57-.69-3.57-1a9.49,9.49,0,0,1-2.47-1.15A4,4,0,0,1,568,252.5a5.34,5.34,0,0,1-.44-2.29,6.64,6.64,0,0,1,.69-3.07,6.38,6.38,0,0,1,1.87-2.25,8.37,8.37,0,0,1,2.81-1.37,12.42,12.42,0,0,1,3.46-.46,14,14,0,0,1,4.86.83A12,12,0,0,1,585,246.1l-1.76,2.34a10,10,0,0,0-3.27-1.92,11.22,11.22,0,0,0-3.71-.64,6.67,6.67,0,0,0-3.59.91,3.12,3.12,0,0,0-1.48,2.89,2.75,2.75,0,0,0,.28,1.32,2.43,2.43,0,0,0,.95.93,7.91,7.91,0,0,0,1.7.71c.69.2,1.53.42,2.5.66q2.29.52,4,1.08a11.68,11.68,0,0,1,2.83,1.3,5,5,0,0,1,1.68,1.77,5.21,5.21,0,0,1,.55,2.47,6.11,6.11,0,0,1-2.48,5.12A10.63,10.63,0,0,1,576.52,266.94Z" transform="translate(0 13.27)"/><path class="cls-5" d="M623.32,238.69H612.5V266.5h-4V238.69H597.71v-3.54h25.61Z" transform="translate(0 13.27)"/><path class="cls-5" d="M632.5,266.94a11.78,11.78,0,0,1-4.77-.95,11.24,11.24,0,0,1-3.71-2.58,11.68,11.68,0,0,1-2.4-3.82,12.62,12.62,0,0,1,0-9.21,11.5,11.5,0,0,1,6.15-6.38,11.84,11.84,0,0,1,4.77-.94,11.29,11.29,0,0,1,8.39,3.55,11.54,11.54,0,0,1,2.32,3.75,12.48,12.48,0,0,1,.82,4.44c0,.32,0,.62,0,.88a4,4,0,0,1-.06.62H624.86a8.86,8.86,0,0,0,.8,3.14,8,8,0,0,0,4.12,4,7.09,7.09,0,0,0,2.85.58,7.68,7.68,0,0,0,2.08-.29,9,9,0,0,0,1.89-.77,6.41,6.41,0,0,0,1.57-1.2,4.93,4.93,0,0,0,1-1.58l3.35.92a8.25,8.25,0,0,1-1.56,2.34,10.3,10.3,0,0,1-2.3,1.83,11.91,11.91,0,0,1-2.89,1.22A12.47,12.47,0,0,1,632.5,266.94Zm7.9-13.51a8.2,8.2,0,0,0-.82-3,8,8,0,0,0-1.72-2.37,7.84,7.84,0,0,0-2.4-1.52,7.74,7.74,0,0,0-2.92-.55,7.65,7.65,0,0,0-2.91.55,7.44,7.44,0,0,0-2.41,1.55,7.91,7.91,0,0,0-1.68,2.36,8.84,8.84,0,0,0-.77,3Z" transform="translate(0 13.27)"/><path class="cls-5" d="M646.85,254.93a12.55,12.55,0,0,1,.84-4.59,11.09,11.09,0,0,1,2.38-3.77,11.54,11.54,0,0,1,3.69-2.57,11.7,11.7,0,0,1,4.79-.94,11.11,11.11,0,0,1,5.93,1.52,9.9,9.9,0,0,1,3.78,4.08l-3.8,1.19a6.33,6.33,0,0,0-2.47-2.53,7,7,0,0,0-3.53-.91,7.28,7.28,0,0,0-3,.64,7,7,0,0,0-2.43,1.79,8.64,8.64,0,0,0-1.61,2.69,9.78,9.78,0,0,0,0,6.8,9,9,0,0,0,1.65,2.76,7.49,7.49,0,0,0,2.43,1.83,6.88,6.88,0,0,0,3,.67,7.24,7.24,0,0,0,2-.29,7.77,7.77,0,0,0,1.81-.77,7.34,7.34,0,0,0,1.44-1.13,3.93,3.93,0,0,0,.88-1.39l3.8,1.15A8.49,8.49,0,0,1,667,263.5a9.61,9.61,0,0,1-2.23,1.81,12.56,12.56,0,0,1-2.85,1.19,12.27,12.27,0,0,1-3.29.44,11.46,11.46,0,0,1-4.77-1,11.5,11.5,0,0,1-6.11-6.42A12.39,12.39,0,0,1,646.85,254.93Z" transform="translate(0 13.27)"/><path class="cls-5" d="M692.85,266.5H689V253.61q0-3.71-1.12-5.39a3.83,3.83,0,0,0-3.42-1.68A6.56,6.56,0,0,0,682,247a9.64,9.64,0,0,0-2.25,1.26,8.73,8.73,0,0,0-1.85,1.89,8.35,8.35,0,0,0-1.2,2.43V266.5h-3.88V243.45h3.53v5a10.12,10.12,0,0,1,4-3.89,11.27,11.27,0,0,1,5.63-1.45,6.84,6.84,0,0,1,3.31.72,5.61,5.61,0,0,1,2.12,2,9,9,0,0,1,1.13,3.06,21,21,0,0,1,.33,3.84Z" transform="translate(0 13.27)"/><path class="cls-5" d="M709,266.94a11.29,11.29,0,0,1-4.74-1,11.45,11.45,0,0,1-3.67-2.61,11.72,11.72,0,0,1-2.36-3.79,12.71,12.71,0,0,1,0-9.14,12.12,12.12,0,0,1,2.39-3.8,11.3,11.3,0,0,1,8.36-3.57,11.4,11.4,0,0,1,4.73,1,11.25,11.25,0,0,1,3.68,2.6,12.12,12.12,0,0,1,2.39,3.8,12.71,12.71,0,0,1,0,9.14,11.44,11.44,0,0,1-2.38,3.79,11.76,11.76,0,0,1-3.69,2.61A11.33,11.33,0,0,1,709,266.94Zm-7.63-11.88a9.2,9.2,0,0,0,.59,3.36,8.57,8.57,0,0,0,1.63,2.69,7.8,7.8,0,0,0,2.43,1.81,7,7,0,0,0,6,0,7.68,7.68,0,0,0,2.45-1.83,8.52,8.52,0,0,0,1.66-2.74,9.83,9.83,0,0,0,0-6.71,8.58,8.58,0,0,0-1.66-2.73,7.71,7.71,0,0,0-2.45-1.84,6.84,6.84,0,0,0-3-.66,6.62,6.62,0,0,0-3,.69,7.93,7.93,0,0,0-2.43,1.85,8.82,8.82,0,0,0-1.63,2.74A9.33,9.33,0,0,0,701.33,255.06Z" transform="translate(0 13.27)"/><path class="cls-5" d="M725.43,234.27h3.89v26.27a2.81,2.81,0,0,0,.68,2,2.54,2.54,0,0,0,1.92.73,5.42,5.42,0,0,0,1.15-.16,9.9,9.9,0,0,0,1.23-.37l.62,3.13a11.84,11.84,0,0,1-2.29.66,12,12,0,0,1-2.34.27,4.88,4.88,0,0,1-3.56-1.28,4.8,4.8,0,0,1-1.3-3.58Z" transform="translate(0 13.27)"/><path class="cls-5" d="M748,266.94a11.32,11.32,0,0,1-4.74-1,11.45,11.45,0,0,1-3.67-2.61,11.72,11.72,0,0,1-2.36-3.79,12.71,12.71,0,0,1,0-9.14,12.12,12.12,0,0,1,2.39-3.8,11.56,11.56,0,0,1,16.77,0,12.12,12.12,0,0,1,2.39,3.8,12.71,12.71,0,0,1,0,9.14,11.44,11.44,0,0,1-2.38,3.79,11.65,11.65,0,0,1-3.69,2.61A11.33,11.33,0,0,1,748,266.94Zm-7.63-11.88a9.41,9.41,0,0,0,.59,3.36,8.41,8.41,0,0,0,1.64,2.69,7.65,7.65,0,0,0,2.42,1.81,7,7,0,0,0,6,0,7.68,7.68,0,0,0,2.45-1.83,8.52,8.52,0,0,0,1.66-2.74,9.68,9.68,0,0,0,0-6.71,8.58,8.58,0,0,0-1.66-2.73,7.71,7.71,0,0,0-2.45-1.84,6.84,6.84,0,0,0-3-.66,6.65,6.65,0,0,0-3,.69,7.77,7.77,0,0,0-2.42,1.85,8.65,8.65,0,0,0-1.64,2.74A9.55,9.55,0,0,0,740.4,255.06Zm8.3-15.45-2.56-.88,2.56-4.46h3.88Z" transform="translate(0 13.27)"/><path class="cls-5" d="M773.6,266.76a9.57,9.57,0,0,1-4.31-1,10.63,10.63,0,0,1-3.38-2.6,11.87,11.87,0,0,1-2.18-3.75A12.73,12.73,0,0,1,763,255a13.56,13.56,0,0,1,.77-4.61,11.68,11.68,0,0,1,2.18-3.82,10.6,10.6,0,0,1,3.38-2.59,9.9,9.9,0,0,1,4.35-.94,8.86,8.86,0,0,1,5,1.41,12.81,12.81,0,0,1,3.58,3.57v-4.59h3.44v22.78a9.81,9.81,0,0,1-.92,4.35,9.29,9.29,0,0,1-2.52,3.16,11.12,11.12,0,0,1-3.73,1.94,15.44,15.44,0,0,1-4.57.66,13.17,13.17,0,0,1-6.38-1.34,11.74,11.74,0,0,1-4.08-3.73l2.25-2a8.66,8.66,0,0,0,3.53,3.05,11,11,0,0,0,4.68,1,10.31,10.31,0,0,0,3-.44,7.21,7.21,0,0,0,2.5-1.32,6.7,6.7,0,0,0,1.7-2.21,7.24,7.24,0,0,0,.64-3.14v-4.06a9.69,9.69,0,0,1-1.57,1.92,9.79,9.79,0,0,1-2,1.46,9,9,0,0,1-2.26.9A9.39,9.39,0,0,1,773.6,266.76Zm1.19-3.17a6.45,6.45,0,0,0,2.38-.45,8.43,8.43,0,0,0,2.12-1.17,7.28,7.28,0,0,0,1.63-1.65,5.21,5.21,0,0,0,.89-1.9V251.8a9.13,9.13,0,0,0-1.26-2.17,10.35,10.35,0,0,0-1.74-1.7,7.87,7.87,0,0,0-2.1-1.12,6.67,6.67,0,0,0-2.27-.4,6.56,6.56,0,0,0-3.16.75,7.31,7.31,0,0,0-2.36,2,9.2,9.2,0,0,0-1.5,2.8,9.66,9.66,0,0,0-.53,3.16,8.76,8.76,0,0,0,.61,3.27,9,9,0,0,0,1.68,2.69,8.28,8.28,0,0,0,2.5,1.83A7.05,7.05,0,0,0,774.79,263.59Z" transform="translate(0 13.27)"/><path class="cls-5" d="M792,239.13v-4.86h3.89v4.86Zm0,27.37V243.45h3.89V266.5Z" transform="translate(0 13.27)"/><path class="cls-5" d="M800.57,254.93a12.55,12.55,0,0,1,.84-4.59,11.25,11.25,0,0,1,2.38-3.77,11.54,11.54,0,0,1,3.69-2.57,11.73,11.73,0,0,1,4.79-.94,11.12,11.12,0,0,1,5.94,1.52,9.87,9.87,0,0,1,3.77,4.08l-3.79,1.19a6.35,6.35,0,0,0-2.48-2.53,6.93,6.93,0,0,0-3.53-.91,7.28,7.28,0,0,0-3,.64,7.18,7.18,0,0,0-2.43,1.79,8.83,8.83,0,0,0-1.61,2.69,9.78,9.78,0,0,0,0,6.8,9.07,9.07,0,0,0,1.66,2.76,7.49,7.49,0,0,0,2.43,1.83,6.85,6.85,0,0,0,3,.67,7.34,7.34,0,0,0,2-.29,8,8,0,0,0,1.81-.77,7,7,0,0,0,1.43-1.13,3.8,3.8,0,0,0,.88-1.39l3.8,1.15a8.26,8.26,0,0,1-1.48,2.34,9.41,9.41,0,0,1-2.23,1.81,12.24,12.24,0,0,1-6.14,1.63,11.48,11.48,0,0,1-8.47-3.58,11.83,11.83,0,0,1-2.41-3.81A12.59,12.59,0,0,1,800.57,254.93Z" transform="translate(0 13.27)"/><path class="cls-5" d="M832.49,266.94a8.3,8.3,0,0,1-3-.55,7.74,7.74,0,0,1-2.45-1.52,7.26,7.26,0,0,1-1.63-2.28,6.74,6.74,0,0,1-.6-2.85,6,6,0,0,1,.71-2.89,6.55,6.55,0,0,1,2-2.23,10.27,10.27,0,0,1,3.09-1.45,13.45,13.45,0,0,1,3.91-.53,18.94,18.94,0,0,1,3.4.31,15.53,15.53,0,0,1,3,.83v-1.85a5.55,5.55,0,0,0-6.09-6.05,12.91,12.91,0,0,0-7.33,2.69l-1.28-2.51a15.94,15.94,0,0,1,9-3,9.88,9.88,0,0,1,7.09,2.42,9,9,0,0,1,2.54,6.85v9.4q0,1.36,1.23,1.41v3.36l-1,.13a7.58,7.58,0,0,1-.84.05,2.44,2.44,0,0,1-1.83-.69,2.8,2.8,0,0,1-.82-1.65l-.09-1.64a9.92,9.92,0,0,1-3.9,3.16A12,12,0,0,1,832.49,266.94Zm1-2.91a9.54,9.54,0,0,0,3.86-.78,6.22,6.22,0,0,0,2.71-2.05,2.45,2.45,0,0,0,.84-1.72v-3.4a15.89,15.89,0,0,0-5.87-1.1,8.4,8.4,0,0,0-4.75,1.23,3.75,3.75,0,0,0-1.83,3.23,4.42,4.42,0,0,0,.38,1.81,4.31,4.31,0,0,0,1.06,1.45,4.91,4.91,0,0,0,1.61,1A5.45,5.45,0,0,0,833.51,264Z" transform="translate(0 13.27)"/><path class="cls-5" d="M859.11,266.94a18,18,0,0,1-5.47-.86,13.6,13.6,0,0,1-4.64-2.49l1.68-2.61a16.52,16.52,0,0,0,4.06,2.32,12,12,0,0,0,4.28.77,7.11,7.11,0,0,0,4-1,3.2,3.2,0,0,0,1.48-2.81,2.55,2.55,0,0,0-.4-1.43,3.32,3.32,0,0,0-1.19-1,9.78,9.78,0,0,0-2-.79c-.83-.24-1.78-.49-2.87-.75-1.39-.36-2.58-.69-3.58-1a9.64,9.64,0,0,1-2.47-1.15,3.94,3.94,0,0,1-1.41-1.59,5.2,5.2,0,0,1-.44-2.29,6.64,6.64,0,0,1,.68-3.07,6.41,6.41,0,0,1,1.88-2.25,8.23,8.23,0,0,1,2.8-1.37,12.42,12.42,0,0,1,3.46-.46,14,14,0,0,1,4.86.83,12,12,0,0,1,3.8,2.21l-1.77,2.34a10.06,10.06,0,0,0-3.26-1.92,11.26,11.26,0,0,0-3.71-.64,6.68,6.68,0,0,0-3.6.91,3.12,3.12,0,0,0-1.48,2.89,2.63,2.63,0,0,0,.29,1.32,2.36,2.36,0,0,0,1,.93,7.7,7.7,0,0,0,1.7.71q1,.3,2.49.66c1.53.35,2.86.71,4,1.08a11.59,11.59,0,0,1,2.82,1.3,5,5,0,0,1,1.68,1.77,5.09,5.09,0,0,1,.55,2.47,6.1,6.1,0,0,1-2.47,5.12A10.66,10.66,0,0,1,859.11,266.94Z" transform="translate(0 13.27)"/><g class="cls-6"><polygon class="cls-7" points="411.27 0 287.24 27.78 309.88 128.82 433.91 101.03 411.27 0"/></g><path class="cls-2" d="M392.83,55.55c.83,4.79,1.48,9.52,1.85,13.32L366,63.05,386.29,26.5c2.8,9.3,5.54,23.37,6.54,29.05" transform="translate(0 13.27)"/><g class="cls-8"><polygon class="cls-9" points="411.18 49.94 364.87 30.9 345.03 79.16 391.31 98.2 411.18 49.94"/></g><g class="cls-10"><rect class="cls-11" x="418.84" y="72.04" width="27.83" height="27.45" transform="translate(-8.28 109.88) rotate(-12.62)"/></g><g class="cls-12"><rect class="cls-13" x="277.57" y="34.5" width="123.11" height="86.66" transform="translate(-8.81 89.3) rotate(-12.63)"/></g><path class="cls-5" d="M109.22,394.4h3.55l10.15,25.74h-4.28l-2.71-7H106l-2.68,7H99Zm5.91,15.73L111,399.08l-4.28,11.05Z" transform="translate(0 13.27)"/><path class="cls-5" d="M133.87,420.5a8.1,8.1,0,0,1-3.55-.78,9,9,0,0,1-2.83-2.12,9.78,9.78,0,0,1-1.87-3.14,11.38,11.38,0,0,1,0-7.61,10,10,0,0,1,1.77-3.1,8.71,8.71,0,0,1,2.68-2.12,7.41,7.41,0,0,1,3.39-.78,7.32,7.32,0,0,1,4,1.11,8,8,0,0,1,2.71,2.81V393.68h4v21.74a1.55,1.55,0,0,0,.24,1,1.09,1.09,0,0,0,.85.33v3.41c-.41.07-.74.12-1,.14a5.3,5.3,0,0,1-.63,0,3,3,0,0,1-2-.62,2.16,2.16,0,0,1-.83-1.59l-.08-1.42a7.44,7.44,0,0,1-2.86,2.79A8.06,8.06,0,0,1,133.87,420.5Zm1-3.41a5.29,5.29,0,0,0,1.74-.29,5.93,5.93,0,0,0,1.59-.8,5.44,5.44,0,0,0,1.25-1.19,4.25,4.25,0,0,0,.74-1.49v-5a5.69,5.69,0,0,0-.92-1.67,6.74,6.74,0,0,0-1.36-1.31,6.16,6.16,0,0,0-1.61-.83,5.4,5.4,0,0,0-1.72-.29,4.56,4.56,0,0,0-2.2.54,5.83,5.83,0,0,0-1.72,1.45,7.42,7.42,0,0,0-1.14,2.07,7,7,0,0,0-.42,2.39,6.61,6.61,0,0,0,.46,2.47,6.29,6.29,0,0,0,1.25,2,5.94,5.94,0,0,0,1.83,1.37A5,5,0,0,0,134.85,417.09Z" transform="translate(0 13.27)"/><path class="cls-5" d="M157.21,420.5a14.69,14.69,0,0,1-4.55-.74,11.66,11.66,0,0,1-3.89-2.12l1.59-2.54a14.75,14.75,0,0,0,3.37,1.86,9.37,9.37,0,0,0,3.41.64,5,5,0,0,0,2.81-.69,2.21,2.21,0,0,0,1-2,1.83,1.83,0,0,0-1.16-1.74A23,23,0,0,0,156.2,412c-1.19-.32-2.2-.62-3-.91a8.07,8.07,0,0,1-2.06-1,3.5,3.5,0,0,1-1.16-1.35,4.11,4.11,0,0,1-.37-1.84,5.76,5.76,0,0,1,.56-2.58,5.63,5.63,0,0,1,1.56-1.9,7.16,7.16,0,0,1,2.34-1.18,10.37,10.37,0,0,1,2.9-.4,11.76,11.76,0,0,1,4,.66,10.37,10.37,0,0,1,3.3,1.88l-1.71,2.39a8.87,8.87,0,0,0-5.62-2.1,4.82,4.82,0,0,0-2.55.63,2.2,2.2,0,0,0-1,2,2,2,0,0,0,.21,1,1.82,1.82,0,0,0,.71.69,5.71,5.71,0,0,0,1.27.53c.52.16,1.16.33,1.94.52,1.28.32,2.38.63,3.32.95a9.13,9.13,0,0,1,2.3,1.1,4.18,4.18,0,0,1,1.34,1.49,4.46,4.46,0,0,1,.43,2.05,5.13,5.13,0,0,1-2,4.29A9,9,0,0,1,157.21,420.5Z" transform="translate(0 13.27)"/><path class="cls-5" d="M175.23,420.5a5.38,5.38,0,0,1-4.5-1.94,9.27,9.27,0,0,1-1.52-5.78v-11.6h4V412c0,3.41,1.2,5.11,3.62,5.11a5.6,5.6,0,0,0,3.23-1,6.7,6.7,0,0,0,2.35-3V401.18h4v14.24a1.55,1.55,0,0,0,.24,1,1.09,1.09,0,0,0,.85.33v3.41c-.41.07-.75.12-1,.14a6.68,6.68,0,0,1-.76,0,2.91,2.91,0,0,1-1.85-.6,2,2,0,0,1-.8-1.54l-.07-1.89a8.35,8.35,0,0,1-3.3,3.14A9.44,9.44,0,0,1,175.23,420.5Z" transform="translate(0 13.27)"/><path class="cls-5" d="M221.55,420.14h-4V409.52a6.81,6.81,0,0,0-.87-3.88,2.91,2.91,0,0,0-2.54-1.23,4.49,4.49,0,0,0-3.09,1.25,6.93,6.93,0,0,0-2,3.24v11.24h-4V409.52a6.82,6.82,0,0,0-.87-3.9,2.89,2.89,0,0,0-2.5-1.21,4.64,4.64,0,0,0-3.12,1.23,6.83,6.83,0,0,0-2,3.22v11.28h-4v-19h3.63V405a8,8,0,0,1,2.95-3.07,8.19,8.19,0,0,1,4.19-1.07,5.09,5.09,0,0,1,5.4,4.32,8.65,8.65,0,0,1,3-3.21,7.71,7.71,0,0,1,4.13-1.11,5.54,5.54,0,0,1,2.77.64,4.89,4.89,0,0,1,1.76,1.68,7.08,7.08,0,0,1,.91,2.45,17.34,17.34,0,0,1,.25,2.95Z" transform="translate(0 13.27)"/><path class="cls-5" d="M253,400.45a6.05,6.05,0,0,0-1-.85,11.43,11.43,0,0,0-1.61-.85,11.78,11.78,0,0,0-2-.65,10.13,10.13,0,0,0-2.27-.26,6.18,6.18,0,0,0-3.79,1,3.12,3.12,0,0,0-1.21,2.61,2.86,2.86,0,0,0,.38,1.54,3.22,3.22,0,0,0,1.18,1.05,9.23,9.23,0,0,0,2,.8c.8.23,1.73.47,2.79.74a30.14,30.14,0,0,1,3.54,1.05,10.24,10.24,0,0,1,2.66,1.41,5.77,5.77,0,0,1,1.69,2.05,6.65,6.65,0,0,1,.59,3,7.13,7.13,0,0,1-.74,3.37,6.26,6.26,0,0,1-2,2.3,8.82,8.82,0,0,1-3,1.3,15.19,15.19,0,0,1-3.66.42,18.27,18.27,0,0,1-5.67-.89,16,16,0,0,1-4.95-2.59l1.85-3.48a7.88,7.88,0,0,0,1.36,1.05,12.75,12.75,0,0,0,2.06,1.07,16.7,16.7,0,0,0,2.56.83,11.73,11.73,0,0,0,2.86.35,6.92,6.92,0,0,0,3.7-.83,2.75,2.75,0,0,0,1.31-2.47,2.67,2.67,0,0,0-.49-1.63,4.16,4.16,0,0,0-1.4-1.14,12.06,12.06,0,0,0-2.21-.89c-.87-.27-1.86-.54-3-.83a32.87,32.87,0,0,1-3.36-1.07,8.63,8.63,0,0,1-2.37-1.36,5.26,5.26,0,0,1-1.43-1.87,6.14,6.14,0,0,1-.49-2.59,7.47,7.47,0,0,1,.72-3.35,7.36,7.36,0,0,1,2-2.47,8.74,8.74,0,0,1,3-1.5,12.88,12.88,0,0,1,3.7-.51,13.67,13.67,0,0,1,4.82.83,16,16,0,0,1,3.88,2.07Z" transform="translate(0 13.27)"/><path class="cls-5" d="M269,420.5a9.88,9.88,0,0,1-4-.8,9.21,9.21,0,0,1-3.06-2.14,9.37,9.37,0,0,1-2-3.13,10.56,10.56,0,0,1,0-7.51,9.27,9.27,0,0,1,2-3.13,9.56,9.56,0,0,1,3.08-2.14,9.9,9.9,0,0,1,11.09,2.14,9.24,9.24,0,0,1,2,3.13,10.56,10.56,0,0,1,0,7.51,9.24,9.24,0,0,1-2,3.13A9.62,9.62,0,0,1,273,419.7,9.8,9.8,0,0,1,269,420.5Zm-5.65-9.79a7.17,7.17,0,0,0,.43,2.54,6.32,6.32,0,0,0,1.2,2,5.47,5.47,0,0,0,1.79,1.34,5.32,5.32,0,0,0,4.46,0,5.43,5.43,0,0,0,1.8-1.36,6.59,6.59,0,0,0,1.19-2,7.47,7.47,0,0,0,0-5,6.57,6.57,0,0,0-1.19-2.05,5.57,5.57,0,0,0-1.8-1.36,5.09,5.09,0,0,0-2.23-.49,4.89,4.89,0,0,0-2.19.51,5.77,5.77,0,0,0-1.8,1.38,6.77,6.77,0,0,0-1.21,2A7,7,0,0,0,263.38,410.71Z" transform="translate(0 13.27)"/><path class="cls-5" d="M283.46,393.68h4v21a2.38,2.38,0,0,0,.54,1.65,1.94,1.94,0,0,0,1.52.6,3.89,3.89,0,0,0,.93-.14q.53-.15,1-.33l.58,3.12a9.84,9.84,0,0,1-2.06.63,11,11,0,0,1-2.14.24,4.38,4.38,0,0,1-3.21-1.13,4.28,4.28,0,0,1-1.14-3.19Z" transform="translate(0 13.27)"/><path class="cls-5" d="M301.26,420.5a5.38,5.38,0,0,1-4.5-1.94,9.27,9.27,0,0,1-1.52-5.78v-11.6h4V412c0,3.41,1.2,5.11,3.62,5.11a5.6,5.6,0,0,0,3.23-1,6.7,6.7,0,0,0,2.35-3V401.18h4v14.24a1.62,1.62,0,0,0,.23,1,1.13,1.13,0,0,0,.86.33v3.41c-.41.07-.75.12-1,.14a6.68,6.68,0,0,1-.76,0,2.91,2.91,0,0,1-1.85-.6,2,2,0,0,1-.8-1.54l-.07-1.89a8.35,8.35,0,0,1-3.3,3.14A9.44,9.44,0,0,1,301.26,420.5Z" transform="translate(0 13.27)"/><path class="cls-5" d="M317.35,410.64a10.3,10.3,0,0,1,.69-3.77,9.19,9.19,0,0,1,5.07-5.24,10.17,10.17,0,0,1,4.06-.78,9.57,9.57,0,0,1,5.06,1.29,8.17,8.17,0,0,1,3.17,3.43l-3.88,1.23a5,5,0,0,0-4.42-2.54,5.37,5.37,0,0,0-2.23.47,5.45,5.45,0,0,0-1.79,1.32,6.26,6.26,0,0,0-1.2,2,7.26,7.26,0,0,0-.44,2.57,7.14,7.14,0,0,0,.46,2.56,6.54,6.54,0,0,0,1.23,2,5.57,5.57,0,0,0,1.81,1.36,5,5,0,0,0,2.2.49A5.3,5.3,0,0,0,331,415.5a3.39,3.39,0,0,0,.67-1l3.91,1.16a7.72,7.72,0,0,1-3.15,3.5,9.71,9.71,0,0,1-5.22,1.36,9.91,9.91,0,0,1-4-.8,9.39,9.39,0,0,1-3.1-2.16,9.66,9.66,0,0,1-2-3.13A9.91,9.91,0,0,1,317.35,410.64Z" transform="translate(0 13.27)"/><path class="cls-5" d="M339.93,398.06v-4.38h4v4.38Zm0,22.08v-19h4v19Z" transform="translate(0 13.27)"/><path class="cls-5" d="M358.31,420.5a9.84,9.84,0,0,1-4-.8,9.24,9.24,0,0,1-5-5.27,10.56,10.56,0,0,1,0-7.51,9.09,9.09,0,0,1,2-3.13,10.14,10.14,0,0,1,11.09-2.14,9.56,9.56,0,0,1,3.08,2.14,9.27,9.27,0,0,1,2,3.13,10.56,10.56,0,0,1,0,7.51,9.27,9.27,0,0,1-2,3.13,9.4,9.4,0,0,1-3.08,2.14A9.75,9.75,0,0,1,358.31,420.5Zm-5.66-9.79a7.17,7.17,0,0,0,.44,2.54,6.49,6.49,0,0,0,1.19,2,5.51,5.51,0,0,0,1.8,1.34,5.32,5.32,0,0,0,4.46,0,5.39,5.39,0,0,0,1.79-1.36,6.42,6.42,0,0,0,1.2-2,7.63,7.63,0,0,0,0-5,6.41,6.41,0,0,0-1.2-2.05,5.53,5.53,0,0,0-1.79-1.36,5.12,5.12,0,0,0-2.23-.49,4.9,4.9,0,0,0-2.2.51,5.85,5.85,0,0,0-1.79,1.38,6.57,6.57,0,0,0-1.21,2A6.83,6.83,0,0,0,352.65,410.71Z" transform="translate(0 13.27)"/><path class="cls-5" d="M389.7,420.14h-4V409.52a6.92,6.92,0,0,0-.85-3.9,2.88,2.88,0,0,0-2.52-1.21,4.86,4.86,0,0,0-1.74.32,6,6,0,0,0-1.63.93,7,7,0,0,0-1.36,1.41,6.48,6.48,0,0,0-.93,1.79v11.28h-4v-19h3.62V405a7.74,7.74,0,0,1,3.15-3,9.51,9.51,0,0,1,4.57-1.11,5.6,5.6,0,0,1,2.79.62,4.55,4.55,0,0,1,1.72,1.68,7.33,7.33,0,0,1,.89,2.47,16.36,16.36,0,0,1,.26,2.95Z" transform="translate(0 13.27)"/><path class="cls-5" d="M404,420.5a10.08,10.08,0,0,1-4-.78,9.31,9.31,0,0,1-5.09-5.24,10.11,10.11,0,0,1-.71-3.77,10.29,10.29,0,0,1,.71-3.79,9.75,9.75,0,0,1,2-3.15,9.2,9.2,0,0,1,3.1-2.14,10.17,10.17,0,0,1,4.06-.78,9.83,9.83,0,0,1,4,.8,9.68,9.68,0,0,1,3.06,2.12,9.21,9.21,0,0,1,1.94,3.08,10.39,10.39,0,0,1,.67,3.68,7.15,7.15,0,0,1,0,.82c0,.25-.05.46-.07.63H398.43a6.28,6.28,0,0,0,.6,2.28A6,6,0,0,0,400.3,416a5.37,5.37,0,0,0,1.77,1.14,5.51,5.51,0,0,0,2.09.4,6.06,6.06,0,0,0,1.58-.2,5.44,5.44,0,0,0,1.43-.58,5.17,5.17,0,0,0,1.16-.92,4.1,4.1,0,0,0,.79-1.2l3.41,1a7.88,7.88,0,0,1-3.24,3.5A10,10,0,0,1,404,420.5Zm5.77-11.27a6.51,6.51,0,0,0-.6-2.22,5.77,5.77,0,0,0-1.25-1.72,5.5,5.5,0,0,0-1.78-1.1,5.69,5.69,0,0,0-2.14-.4,5.59,5.59,0,0,0-2.12.4,5.47,5.47,0,0,0-1.75,1.1A5.58,5.58,0,0,0,398.9,407a7,7,0,0,0-.58,2.22Z" transform="translate(0 13.27)"/><path class="cls-5" d="M425,420.5a14.69,14.69,0,0,1-4.55-.74,11.76,11.76,0,0,1-3.89-2.12l1.59-2.54a14.75,14.75,0,0,0,3.37,1.86,9.41,9.41,0,0,0,3.41.64,5,5,0,0,0,2.81-.69,2.21,2.21,0,0,0,1-2,1.82,1.82,0,0,0-1.16-1.74A23,23,0,0,0,424,412c-1.19-.32-2.2-.62-3.05-.91a8.07,8.07,0,0,1-2.06-1,3.59,3.59,0,0,1-1.16-1.35,4.25,4.25,0,0,1-.36-1.84,5.63,5.63,0,0,1,.56-2.58,5.4,5.4,0,0,1,1.56-1.9,7,7,0,0,1,2.33-1.18,10.37,10.37,0,0,1,2.9-.4,11.76,11.76,0,0,1,4,.66,10.37,10.37,0,0,1,3.3,1.88l-1.7,2.39a8.91,8.91,0,0,0-5.62-2.1,4.83,4.83,0,0,0-2.56.63,2.2,2.2,0,0,0-1,2,1.93,1.93,0,0,0,.22,1,1.79,1.79,0,0,0,.7.69,5.71,5.71,0,0,0,1.27.53c.52.16,1.17.33,1.94.52,1.28.32,2.39.63,3.32.95a9,9,0,0,1,2.3,1.1,4.18,4.18,0,0,1,1.34,1.49,4.46,4.46,0,0,1,.44,2.05,5.14,5.14,0,0,1-2.05,4.29A8.93,8.93,0,0,1,425,420.5Z" transform="translate(0 13.27)"/><path class="cls-5" d="M120.53,441.49H112v22.14h-4.1V441.49H99.29V437.9h21.24Z" transform="translate(0 13.27)"/><path class="cls-5" d="M129,464a10.08,10.08,0,0,1-4-.78,9.44,9.44,0,0,1-3.1-2.12,9.81,9.81,0,0,1-2-3.12,10.1,10.1,0,0,1-.7-3.77,10.28,10.28,0,0,1,.7-3.79,9.83,9.83,0,0,1,2-3.15,9.2,9.2,0,0,1,3.1-2.14,10.17,10.17,0,0,1,4.06-.78,9.75,9.75,0,0,1,4,.8,9.62,9.62,0,0,1,3.07,2.12,9,9,0,0,1,1.93,3.08,10.18,10.18,0,0,1,.68,3.68c0,.29,0,.56,0,.81s-.05.47-.07.64H123.43a6.34,6.34,0,0,0,.6,2.28,5.92,5.92,0,0,0,1.27,1.76,5.56,5.56,0,0,0,3.86,1.54,6.44,6.44,0,0,0,1.57-.2,5.5,5.5,0,0,0,1.43-.58,4.76,4.76,0,0,0,1.16-.92,4.27,4.27,0,0,0,.8-1.2l3.41,1a8,8,0,0,1-3.24,3.5A10.15,10.15,0,0,1,129,464Zm5.76-11.28a6.51,6.51,0,0,0-.59-2.21,6,6,0,0,0-1.25-1.72,5.7,5.7,0,0,0-1.78-1.11,5.93,5.93,0,0,0-2.14-.39,5.6,5.6,0,0,0-3.88,1.5,5.55,5.55,0,0,0-1.23,1.72,6.74,6.74,0,0,0-.58,2.21Z" transform="translate(0 13.27)"/><path class="cls-5" d="M141.84,454.14a10.3,10.3,0,0,1,.69-3.77,9.22,9.22,0,0,1,2-3.12,9.34,9.34,0,0,1,3.1-2.12,10.14,10.14,0,0,1,4.06-.78,9.53,9.53,0,0,1,5.05,1.29,8.09,8.09,0,0,1,3.17,3.42L156,450.29a5,5,0,0,0-1.84-1.86,5,5,0,0,0-2.58-.67,5.3,5.3,0,0,0-4,1.79,6.32,6.32,0,0,0-1.2,2,7.31,7.31,0,0,0-.43,2.58,7.08,7.08,0,0,0,.45,2.55,6.47,6.47,0,0,0,1.23,2.05,5.75,5.75,0,0,0,1.82,1.36,5,5,0,0,0,2.19.49,5.57,5.57,0,0,0,1.45-.2,5.2,5.2,0,0,0,1.32-.56,4.85,4.85,0,0,0,1-.84,3.07,3.07,0,0,0,.67-1l3.92,1.16a7.8,7.8,0,0,1-3.16,3.5,9.79,9.79,0,0,1-5.21,1.36,9.93,9.93,0,0,1-4-.8,9.39,9.39,0,0,1-3.1-2.16,9.66,9.66,0,0,1-2-3.13A10.15,10.15,0,0,1,141.84,454.14Z" transform="translate(0 13.27)"/><path class="cls-5" d="M181.42,463.63h-4V453a6.87,6.87,0,0,0-.86-3.89,2.86,2.86,0,0,0-2.51-1.22,4.88,4.88,0,0,0-1.74.33,6.2,6.2,0,0,0-1.64.92,7,7,0,0,0-1.35,1.42,6.48,6.48,0,0,0-.93,1.79v11.27h-4V444.68h3.63v3.8a7.59,7.59,0,0,1,3.15-3,9.51,9.51,0,0,1,4.57-1.11,5.6,5.6,0,0,1,2.79.62,4.55,4.55,0,0,1,1.72,1.68,7.47,7.47,0,0,1,.89,2.47,16.38,16.38,0,0,1,.25,2.95Z" transform="translate(0 13.27)"/><path class="cls-5" d="M195.67,464a9.84,9.84,0,0,1-4-.8,9.22,9.22,0,0,1-5-5.28,10.54,10.54,0,0,1,0-7.5,9.24,9.24,0,0,1,2-3.13,9.62,9.62,0,0,1,3.08-2.14,10.43,10.43,0,0,1,8,0,9.4,9.4,0,0,1,3.08,2.14,9.27,9.27,0,0,1,2,3.13,10.54,10.54,0,0,1,0,7.5,9.21,9.21,0,0,1-2,3.14,9.56,9.56,0,0,1-3.08,2.14A9.75,9.75,0,0,1,195.67,464ZM190,454.21a7.21,7.21,0,0,0,.44,2.54,6.49,6.49,0,0,0,1.19,2,5.65,5.65,0,0,0,1.8,1.34,5.32,5.32,0,0,0,4.46,0,5.53,5.53,0,0,0,1.79-1.36,6.53,6.53,0,0,0,1.2-2,7.17,7.17,0,0,0,.43-2.54,7.25,7.25,0,0,0-.43-2.52,6.47,6.47,0,0,0-1.2-2,5.39,5.39,0,0,0-1.79-1.36,5.09,5.09,0,0,0-2.23-.49,5,5,0,0,0-2.19.5,5.77,5.77,0,0,0-1.8,1.38,6.62,6.62,0,0,0-1.21,2.05A6.83,6.83,0,0,0,190,454.21Z" transform="translate(0 13.27)"/><path class="cls-5" d="M210.09,437.17h4v21a2.33,2.33,0,0,0,.55,1.65,1.93,1.93,0,0,0,1.52.6,3.43,3.43,0,0,0,.92-.15,9.75,9.75,0,0,0,1-.32l.58,3.11a9.2,9.2,0,0,1-2.07.64,11.77,11.77,0,0,1-2.14.23,4.36,4.36,0,0,1-3.2-1.12,4.24,4.24,0,0,1-1.15-3.19Z" transform="translate(0 13.27)"/><path class="cls-5" d="M230.57,464a9.91,9.91,0,0,1-4-.8,9.47,9.47,0,0,1-3.06-2.14,9.32,9.32,0,0,1-2-3.14,10.54,10.54,0,0,1,0-7.5,9.27,9.27,0,0,1,2-3.13,9.4,9.4,0,0,1,3.08-2.14,10.43,10.43,0,0,1,8,0,9.51,9.51,0,0,1,3.08,2.14,9.27,9.27,0,0,1,2,3.13,10.68,10.68,0,0,1,0,7.5,9.21,9.21,0,0,1-2,3.14,9.67,9.67,0,0,1-3.08,2.14A9.8,9.8,0,0,1,230.57,464Zm-5.65-9.79a7.21,7.21,0,0,0,.43,2.54,6.32,6.32,0,0,0,1.2,2,5.72,5.72,0,0,0,1.79,1.34,5.32,5.32,0,0,0,4.46,0,5.57,5.57,0,0,0,1.8-1.36,6.71,6.71,0,0,0,1.19-2,7.17,7.17,0,0,0,.44-2.54,7.26,7.26,0,0,0-.44-2.52,6.64,6.64,0,0,0-1.19-2,5.43,5.43,0,0,0-1.8-1.36,5.09,5.09,0,0,0-2.23-.49,5,5,0,0,0-2.19.5,5.62,5.62,0,0,0-1.79,1.38,6.64,6.64,0,0,0-1.22,2.05A7,7,0,0,0,224.92,454.21ZM231.44,442l-2.61-.8,2.07-4h3.81Z" transform="translate(0 13.27)"/><path class="cls-5" d="M252.47,463.81A8,8,0,0,1,249,463a8.49,8.49,0,0,1-2.74-2.13,9.88,9.88,0,0,1-1.77-3.08,10.44,10.44,0,0,1-.64-3.66,11,11,0,0,1,.66-3.82,9.44,9.44,0,0,1,1.81-3.12,8.69,8.69,0,0,1,2.77-2.1,8.12,8.12,0,0,1,3.57-.78,7.33,7.33,0,0,1,4,1.09,9.21,9.21,0,0,1,2.84,2.82v-3.58H263v18.41a8.49,8.49,0,0,1-.76,3.66,7.88,7.88,0,0,1-2.12,2.7,9.64,9.64,0,0,1-3.21,1.69,13.45,13.45,0,0,1-4,.58,11.47,11.47,0,0,1-5.24-1.07,9.94,9.94,0,0,1-3.49-3l2.24-2.11a7,7,0,0,0,2.81,2.32,8.81,8.81,0,0,0,6,.48,5.46,5.46,0,0,0,1.94-1,4.9,4.9,0,0,0,1.32-1.74,5.81,5.81,0,0,0,.49-2.5v-2.9a7,7,0,0,1-2.79,2.68A7.82,7.82,0,0,1,252.47,463.81Zm1.3-3.22a4.83,4.83,0,0,0,1.74-.31,5.87,5.87,0,0,0,1.54-.83,6,6,0,0,0,1.22-1.2,4.38,4.38,0,0,0,.72-1.43v-5a7.06,7.06,0,0,0-.94-1.65,7,7,0,0,0-1.32-1.28,6.22,6.22,0,0,0-1.58-.85,4.69,4.69,0,0,0-1.67-.31,4.76,4.76,0,0,0-2.34.56,5.56,5.56,0,0,0-1.75,1.49,7,7,0,0,0-1.13,2.08,7.44,7.44,0,0,0-.4,2.39,6.43,6.43,0,0,0,.46,2.45,6.18,6.18,0,0,0,3.11,3.35A5.41,5.41,0,0,0,253.77,460.59Z" transform="translate(0 13.27)"/><path class="cls-5" d="M268.85,441.56v-4.39h4v4.39Zm0,22.07V444.68h4v18.95Z" transform="translate(0 13.27)"/><path class="cls-5" d="M277.48,454.14a10.3,10.3,0,0,1,.69-3.77,9,9,0,0,1,2-3.12,9.44,9.44,0,0,1,3.1-2.12,10.17,10.17,0,0,1,4.06-.78,9.57,9.57,0,0,1,5.06,1.29,8.15,8.15,0,0,1,3.17,3.42l-3.88,1.23a5.08,5.08,0,0,0-1.85-1.86,5,5,0,0,0-2.57-.67,5.22,5.22,0,0,0-2.23.47,5.31,5.31,0,0,0-1.8,1.32,6.49,6.49,0,0,0-1.19,2,7.31,7.31,0,0,0-.44,2.58,6.88,6.88,0,0,0,.46,2.55,6.47,6.47,0,0,0,1.23,2.05,5.71,5.71,0,0,0,1.81,1.36,5,5,0,0,0,2.19.49,5.51,5.51,0,0,0,1.45-.2,5.12,5.12,0,0,0,1.33-.56,4.85,4.85,0,0,0,1-.84,3.23,3.23,0,0,0,.67-1l3.91,1.16a7.83,7.83,0,0,1-3.15,3.5,10.61,10.61,0,0,1-9.24.56,9.29,9.29,0,0,1-3.1-2.16,9.68,9.68,0,0,1-2-3.13A10.14,10.14,0,0,1,277.48,454.14Z" transform="translate(0 13.27)"/><path class="cls-5" d="M305.1,464a7.14,7.14,0,0,1-2.56-.46,6.25,6.25,0,0,1-2-1.25,5.87,5.87,0,0,1-1.34-1.88,5.64,5.64,0,0,1-.49-2.36,5.07,5.07,0,0,1,.58-2.43,5.77,5.77,0,0,1,1.65-1.88,8,8,0,0,1,2.54-1.23,11.38,11.38,0,0,1,3.24-.44,14.59,14.59,0,0,1,2.65.24,12.35,12.35,0,0,1,2.35.63v-1.3a4.36,4.36,0,0,0-1.19-3.28,4.7,4.7,0,0,0-3.45-1.18,8.21,8.21,0,0,0-3,.56,15.13,15.13,0,0,0-3,1.61l-1.24-2.54a13.49,13.49,0,0,1,7.62-2.46,8.68,8.68,0,0,1,6.09,2,7.38,7.38,0,0,1,2.17,5.73v6.85c0,.85.35,1.28,1.05,1.31v3.4c-.38.08-.72.12-1,.15l-.82,0a2.54,2.54,0,0,1-1.79-.58,2.39,2.39,0,0,1-.78-1.48l-.11-1.2a8.47,8.47,0,0,1-3.14,2.56A9.22,9.22,0,0,1,305.1,464Zm1.08-2.94a7.19,7.19,0,0,0,2.74-.53,4.73,4.73,0,0,0,2-1.46,1.85,1.85,0,0,0,.76-1.38v-2.5a11.92,11.92,0,0,0-2.15-.62,12.38,12.38,0,0,0-2.23-.22,6.07,6.07,0,0,0-3.5.93,2.82,2.82,0,0,0-1.36,2.45,3.08,3.08,0,0,0,1.05,2.37A3.83,3.83,0,0,0,306.18,461.06Z" transform="translate(0 13.27)"/><path class="cls-5" d="M328.48,464a14.37,14.37,0,0,1-4.55-.75,11.46,11.46,0,0,1-3.9-2.12l1.6-2.53a14.34,14.34,0,0,0,3.37,1.86,9.53,9.53,0,0,0,3.4.64,5,5,0,0,0,2.81-.69,2.22,2.22,0,0,0,1-2,1.81,1.81,0,0,0-1.16-1.74,24.47,24.47,0,0,0-3.63-1.2c-1.18-.31-2.2-.61-3-.9a7.68,7.68,0,0,1-2.07-1,3.49,3.49,0,0,1-1.16-1.34,4.3,4.3,0,0,1-.36-1.85,5.61,5.61,0,0,1,.56-2.57,5.4,5.4,0,0,1,1.56-1.9,6.79,6.79,0,0,1,2.34-1.18,10,10,0,0,1,2.9-.4,12,12,0,0,1,4,.65,10.37,10.37,0,0,1,3.3,1.89l-1.7,2.39a8.91,8.91,0,0,0-5.62-2.1,4.83,4.83,0,0,0-2.56.63,2.2,2.2,0,0,0-1,2,2,2,0,0,0,.22,1,1.75,1.75,0,0,0,.71.69,5.89,5.89,0,0,0,1.26.53c.52.15,1.17.33,1.94.52,1.28.32,2.39.63,3.32.94a9.3,9.3,0,0,1,2.3,1.11,4,4,0,0,1,1.34,1.49,4.42,4.42,0,0,1,.44,2,5.14,5.14,0,0,1-2,4.3A8.91,8.91,0,0,1,328.48,464Z" transform="translate(0 13.27)"/><path class="cls-4" d="M69.51,392.06H6.91A6.91,6.91,0,0,0,0,399v62.59a6.92,6.92,0,0,0,6.91,6.92h62.6a6.91,6.91,0,0,0,6.91-6.92V399A6.91,6.91,0,0,0,69.51,392.06ZM23.65,458a2,2,0,0,1-2,2H13.07a2,2,0,0,1-2-2V422.15a2,2,0,0,1,2-2h8.57a2,2,0,0,1,2,2Zm-6.3-41.29a8.14,8.14,0,1,1,8.14-8.13A8.13,8.13,0,0,1,17.35,416.75ZM68.4,458.21a1.85,1.85,0,0,1-1.85,1.85H57.36a1.85,1.85,0,0,1-1.85-1.85V441.37c0-2.51.74-11-6.56-11-5.67,0-6.81,5.82-7.05,8.43v19.42a1.85,1.85,0,0,1-1.85,1.85H31.17a1.85,1.85,0,0,1-1.85-1.85V422a1.85,1.85,0,0,1,1.85-1.85h8.88A1.85,1.85,0,0,1,41.9,422v3.14c2.1-3.16,5.23-5.59,11.87-5.59,14.71,0,14.63,13.75,14.63,21.3v17.38Z" transform="translate(0 13.27)"/><path class="cls-4" d="M554.86,392.06H492.27a6.91,6.91,0,0,0-6.91,6.91v62.6a6.91,6.91,0,0,0,6.91,6.91h21V435.19h-9.48v-11h9.48v-8.1c0-9.4,5.75-14.52,14.14-14.52a79.15,79.15,0,0,1,8.47.43v9.83h-5.81c-4.56,0-5.45,2.17-5.45,5.35v7h10.88l-1.42,11h-9.46v33.29h30.22a6.92,6.92,0,0,0,6.92-6.91V399A6.91,6.91,0,0,0,554.86,392.06Z" transform="translate(0 13.27)"/><path class="cls-5" d="M601.76,420.19a14,14,0,0,1,5.11.94,12.65,12.65,0,0,1,7.23,7,14.62,14.62,0,0,1,1.11,5.84c0,.34,0,.79-.06,1.36a13.51,13.51,0,0,1-.23,1.79,12.12,12.12,0,0,1-.55,1.92,6.42,6.42,0,0,1-1,1.78,4.75,4.75,0,0,1-1.52,1.29,4.57,4.57,0,0,1-2.17.48,3.9,3.9,0,0,1-1.56-.27,2.6,2.6,0,0,1-1-.7,2.83,2.83,0,0,1-.53-1,9.21,9.21,0,0,1-.23-1.14,7.91,7.91,0,0,1-2.67,1.83,8.6,8.6,0,0,1-3.49.7,5.56,5.56,0,0,1-4.1-1.41,4.87,4.87,0,0,1-1.41-3.59,4.65,4.65,0,0,1,.6-2.44,4.57,4.57,0,0,1,1.55-1.6,6.66,6.66,0,0,1,2.18-.85,11.67,11.67,0,0,1,2.41-.25,10.43,10.43,0,0,1,2.65.29,15.81,15.81,0,0,1,1.66.5,10.22,10.22,0,0,0-.18-2,3.8,3.8,0,0,0-.67-1.56,3.29,3.29,0,0,0-1.32-1,5.16,5.16,0,0,0-2.1-.37,8.24,8.24,0,0,0-2.74.44,7.32,7.32,0,0,0-2.19,1.19l-.8-2.17a11.31,11.31,0,0,1,2.86-1.34,10.69,10.69,0,0,1,3.23-.47,7.34,7.34,0,0,1,3.5.7,4.92,4.92,0,0,1,1.92,1.8,6.11,6.11,0,0,1,.79,2.43,21,21,0,0,1,.17,2.57v3.91c0,.54,0,1,0,1.51a5.44,5.44,0,0,0,.24,1.25,1.84,1.84,0,0,0,.54.85,1.44,1.44,0,0,0,1,.31,2.2,2.2,0,0,0,1.69-.74,5.21,5.21,0,0,0,1-1.82,11.6,11.6,0,0,0,.51-2.24,18.37,18.37,0,0,0,.14-2,13,13,0,0,0-.87-4.79,11.44,11.44,0,0,0-2.43-3.82,11.22,11.22,0,0,0-3.73-2.54,11.94,11.94,0,0,0-4.75-.93,12.15,12.15,0,0,0-4.68.89,11.53,11.53,0,0,0-3.71,2.47,11.39,11.39,0,0,0-2.47,3.75,12.47,12.47,0,0,0-.88,4.75,12.77,12.77,0,0,0,.83,4.64,11.78,11.78,0,0,0,2.34,3.8,10.89,10.89,0,0,0,3.6,2.58,11.38,11.38,0,0,0,4.64.94,10.65,10.65,0,0,0,3-.38,20.39,20.39,0,0,0,2.63-1l.58,1.6a15.06,15.06,0,0,1-3.08,1.08,13.43,13.43,0,0,1-3.15.37,13.23,13.23,0,0,1-5.11-1,12.76,12.76,0,0,1-4.19-2.81,13.29,13.29,0,0,1-2.83-4.31,14.3,14.3,0,0,1-1-5.51,13.84,13.84,0,0,1,1.12-5.68,13,13,0,0,1,3-4.25,13.3,13.3,0,0,1,4.35-2.67A14.71,14.71,0,0,1,601.76,420.19Zm2,18.92a3.39,3.39,0,0,0,1.61-1.4,3.61,3.61,0,0,0,.42-1.68v-1.38c-.34-.07-.89-.22-1.63-.43a9.5,9.5,0,0,0-2.65-.33,6.22,6.22,0,0,0-3,.69,2.46,2.46,0,0,0-1.25,2.35,2.81,2.81,0,0,0,.87,2.11,3.34,3.34,0,0,0,2.39.83,6.61,6.61,0,0,0,1.67-.22A9.1,9.1,0,0,0,603.72,439.11Z" transform="translate(0 13.27)"/><path class="cls-5" d="M628.22,416.31h3.55L641.92,442h-4.28l-2.71-7H625l-2.68,7H618ZM634.13,432,630,421,625.72,432Z" transform="translate(0 13.27)"/><path class="cls-5" d="M652.87,442.41a8.1,8.1,0,0,1-3.55-.78,9,9,0,0,1-2.83-2.12,9.88,9.88,0,0,1-1.87-3.14,10.84,10.84,0,0,1-.67-3.86,11,11,0,0,1,.63-3.75,10.09,10.09,0,0,1,1.78-3.1,8.71,8.71,0,0,1,2.68-2.12,7.82,7.82,0,0,1,7.42.33,7.92,7.92,0,0,1,2.71,2.81v-11.1h4v21.75a1.55,1.55,0,0,0,.24,1,1.12,1.12,0,0,0,.85.33V442a9.07,9.07,0,0,1-1,.15c-.25,0-.46,0-.63,0a3,3,0,0,1-2-.62,2.13,2.13,0,0,1-.83-1.6l-.08-1.41a7.51,7.51,0,0,1-2.86,2.79A8.06,8.06,0,0,1,652.87,442.41Zm1-3.41a5.57,5.57,0,0,0,1.74-.29,5.93,5.93,0,0,0,1.59-.8,5.66,5.66,0,0,0,1.25-1.19,4.25,4.25,0,0,0,.74-1.49v-5a5.63,5.63,0,0,0-.92-1.66,6.48,6.48,0,0,0-1.36-1.31,6.16,6.16,0,0,0-1.61-.83,5.14,5.14,0,0,0-1.72-.29,4.56,4.56,0,0,0-2.2.54,5.69,5.69,0,0,0-1.72,1.45,7.42,7.42,0,0,0-1.14,2.07,7,7,0,0,0-.42,2.39,6.52,6.52,0,0,0,.46,2.46,6.31,6.31,0,0,0,3.08,3.41A5,5,0,0,0,653.85,439Z" transform="translate(0 13.27)"/><path class="cls-5" d="M676.21,442.41a14.41,14.41,0,0,1-4.55-.75,11.46,11.46,0,0,1-3.9-2.12l1.6-2.53a14.75,14.75,0,0,0,3.37,1.86,9.37,9.37,0,0,0,3.41.64,5,5,0,0,0,2.81-.69,2.21,2.21,0,0,0,1-2,1.81,1.81,0,0,0-1.16-1.74,23,23,0,0,0-3.62-1.19c-1.19-.32-2.2-.62-3.05-.91a7.83,7.83,0,0,1-2.07-1,3.46,3.46,0,0,1-1.15-1.34,4.12,4.12,0,0,1-.37-1.85,5.75,5.75,0,0,1,.56-2.57,5.63,5.63,0,0,1,1.56-1.9,7.16,7.16,0,0,1,2.34-1.18,10,10,0,0,1,2.9-.4,12,12,0,0,1,4,.65,10.59,10.59,0,0,1,3.3,1.89l-1.71,2.39a8.87,8.87,0,0,0-5.62-2.1,4.82,4.82,0,0,0-2.55.63,2.2,2.2,0,0,0-1,2,2.06,2.06,0,0,0,.21,1,1.82,1.82,0,0,0,.71.69,5.71,5.71,0,0,0,1.27.53c.52.15,1.16.33,1.94.52,1.28.32,2.38.63,3.31.95a9.21,9.21,0,0,1,2.31,1.1,4.1,4.1,0,0,1,1.34,1.49,4.42,4.42,0,0,1,.43,2,5.12,5.12,0,0,1-2.05,4.3A8.89,8.89,0,0,1,676.21,442.41Z" transform="translate(0 13.27)"/><path class="cls-5" d="M694.22,442.41a5.37,5.37,0,0,1-4.49-1.94,9.27,9.27,0,0,1-1.52-5.78v-11.6h4v10.8c0,3.41,1.2,5.11,3.62,5.11a5.6,5.6,0,0,0,3.23-1.05,6.73,6.73,0,0,0,2.35-3.05V423.09h4v14.24a1.62,1.62,0,0,0,.23,1,1.17,1.17,0,0,0,.86.33V442a9,9,0,0,1-1,.15c-.26,0-.52,0-.76,0a2.91,2.91,0,0,1-1.85-.6,2,2,0,0,1-.8-1.54L702,438.2a8.35,8.35,0,0,1-3.3,3.14A9.45,9.45,0,0,1,694.22,442.41Z" transform="translate(0 13.27)"/><path class="cls-5" d="M740.55,442h-4V431.42a6.79,6.79,0,0,0-.87-3.87,2.89,2.89,0,0,0-2.54-1.24,4.56,4.56,0,0,0-3.1,1.25,7.08,7.08,0,0,0-2,3.25V442h-4V431.42a6.8,6.8,0,0,0-.87-3.89,2.9,2.9,0,0,0-2.5-1.22,4.6,4.6,0,0,0-3.12,1.24,6.83,6.83,0,0,0-2,3.22V442h-4v-19h3.63v3.8a7.9,7.9,0,0,1,3-3.06,8.19,8.19,0,0,1,4.19-1.07,5.07,5.07,0,0,1,5.4,4.31,8.54,8.54,0,0,1,3-3.2,7.71,7.71,0,0,1,4.13-1.11,5.43,5.43,0,0,1,2.77.64,4.89,4.89,0,0,1,1.76,1.68,6.88,6.88,0,0,1,.9,2.45,16.36,16.36,0,0,1,.26,3Z" transform="translate(0 13.27)"/><path class="cls-5" d="M762,422.36a5.62,5.62,0,0,0-1.05-.85,11.43,11.43,0,0,0-1.61-.85,11.78,11.78,0,0,0-2-.65,10.13,10.13,0,0,0-2.27-.26,6.16,6.16,0,0,0-3.79.95,3.09,3.09,0,0,0-1.21,2.6,2.89,2.89,0,0,0,.38,1.55,3.41,3.41,0,0,0,1.18,1,9.25,9.25,0,0,0,2,.79q1.2.35,2.79.75a30.72,30.72,0,0,1,3.54,1.05,9.94,9.94,0,0,1,2.66,1.41,5.87,5.87,0,0,1,1.69,2.05,6.74,6.74,0,0,1,.59,2.95,7.08,7.08,0,0,1-.74,3.37,6.38,6.38,0,0,1-2,2.31,9,9,0,0,1-3,1.3,15.31,15.31,0,0,1-3.66.42,18.27,18.27,0,0,1-5.67-.89,16.24,16.24,0,0,1-5-2.59l1.85-3.48a8.53,8.53,0,0,0,1.36,1.05,12.75,12.75,0,0,0,2.06,1.07,17.87,17.87,0,0,0,2.56.83,11.73,11.73,0,0,0,2.86.35,6.82,6.82,0,0,0,3.7-.84,2.72,2.72,0,0,0,1.3-2.46,2.61,2.61,0,0,0-.49-1.63,4,4,0,0,0-1.39-1.14,11.65,11.65,0,0,0-2.21-.89q-1.3-.4-3-.84a30,30,0,0,1-3.36-1.06,8.63,8.63,0,0,1-2.37-1.36,5.35,5.35,0,0,1-1.43-1.87,6.14,6.14,0,0,1-.49-2.59,7.54,7.54,0,0,1,.72-3.36,7.2,7.2,0,0,1,2-2.46,8.39,8.39,0,0,1,2.95-1.5,12.88,12.88,0,0,1,3.7-.51,13.67,13.67,0,0,1,4.82.83,16.22,16.22,0,0,1,3.88,2.07Z" transform="translate(0 13.27)"/><path class="cls-5" d="M778,442.41a9.88,9.88,0,0,1-4-.8,9.21,9.21,0,0,1-3.06-2.14,9.37,9.37,0,0,1-2-3.13,10.56,10.56,0,0,1,0-7.51,9.4,9.4,0,0,1,2-3.13,9.55,9.55,0,0,1,3.09-2.14,10.43,10.43,0,0,1,8,0,9.62,9.62,0,0,1,3.08,2.14,9.4,9.4,0,0,1,2,3.13,10.56,10.56,0,0,1,0,7.51,9.4,9.4,0,0,1-2,3.13,9.62,9.62,0,0,1-3.08,2.14A9.83,9.83,0,0,1,778,442.41Zm-5.65-9.79a7.21,7.21,0,0,0,.43,2.54,6.32,6.32,0,0,0,1.2,2,5.5,5.5,0,0,0,1.79,1.34,5.32,5.32,0,0,0,4.46,0,5.42,5.42,0,0,0,1.79-1.36,6.53,6.53,0,0,0,1.2-2,7.46,7.46,0,0,0,0-5.05A6.41,6.41,0,0,0,782,428a5.29,5.29,0,0,0-1.79-1.36,5.09,5.09,0,0,0-2.23-.49,4.89,4.89,0,0,0-2.19.51,5.6,5.6,0,0,0-1.8,1.37,6.94,6.94,0,0,0-1.21,2.05A7,7,0,0,0,772.34,432.62Z" transform="translate(0 13.27)"/><path class="cls-5" d="M792.42,415.58h4v21a2.38,2.38,0,0,0,.55,1.65,1.94,1.94,0,0,0,1.52.6,3.37,3.37,0,0,0,.92-.15,9,9,0,0,0,1-.32l.58,3.11a9.27,9.27,0,0,1-2.06.64,11,11,0,0,1-2.14.23,4.37,4.37,0,0,1-3.21-1.12,4.28,4.28,0,0,1-1.14-3.19Z" transform="translate(0 13.27)"/><path class="cls-5" d="M810.21,442.41a5.36,5.36,0,0,1-4.49-1.94c-1-1.29-1.52-3.22-1.52-5.78v-11.6h4v10.8q0,5.12,3.63,5.11A5.62,5.62,0,0,0,815,438a6.8,6.8,0,0,0,2.35-3.05V423.09h4v14.24a1.62,1.62,0,0,0,.23,1,1.15,1.15,0,0,0,.86.33V442a9.32,9.32,0,0,1-1,.15c-.27,0-.52,0-.76,0a2.89,2.89,0,0,1-1.85-.6,2,2,0,0,1-.8-1.54L818,438.2a8.42,8.42,0,0,1-3.3,3.14A9.45,9.45,0,0,1,810.21,442.41Z" transform="translate(0 13.27)"/><path class="cls-5" d="M826.31,432.55a10.3,10.3,0,0,1,.69-3.77,9.2,9.2,0,0,1,2-3.12,9.44,9.44,0,0,1,3.1-2.12,10.17,10.17,0,0,1,4.06-.78,9.57,9.57,0,0,1,5.06,1.29,8.21,8.21,0,0,1,3.17,3.42l-3.88,1.24a5,5,0,0,0-4.42-2.54,5.37,5.37,0,0,0-2.23.47A5.31,5.31,0,0,0,832,428a6.49,6.49,0,0,0-1.19,2,7.35,7.35,0,0,0-.44,2.58,6.84,6.84,0,0,0,.46,2.55,6.47,6.47,0,0,0,1.23,2,5.71,5.71,0,0,0,1.81,1.36,5,5,0,0,0,2.19.49,5.51,5.51,0,0,0,1.45-.2,5.12,5.12,0,0,0,1.33-.56,4.85,4.85,0,0,0,1-.84,3.23,3.23,0,0,0,.67-1l3.91,1.16a7.78,7.78,0,0,1-3.15,3.5,9.8,9.8,0,0,1-5.22,1.36,9.91,9.91,0,0,1-4-.8,9.39,9.39,0,0,1-3.1-2.16,9.85,9.85,0,0,1-2-3.13A10.14,10.14,0,0,1,826.31,432.55Z" transform="translate(0 13.27)"/><path class="cls-5" d="M848.89,420v-4.39h4V420Zm0,22.07v-19h4v19Z" transform="translate(0 13.27)"/><path class="cls-5" d="M867.27,442.41a9.92,9.92,0,0,1-4-.8,9.42,9.42,0,0,1-3.06-2.14,9.54,9.54,0,0,1-2-3.13,10.71,10.71,0,0,1,0-7.51,9.27,9.27,0,0,1,2-3.13,9.62,9.62,0,0,1,3.08-2.14,10.43,10.43,0,0,1,8,0,9.4,9.4,0,0,1,3.08,2.14,9.27,9.27,0,0,1,2,3.13,10.56,10.56,0,0,1,0,7.51,9.27,9.27,0,0,1-2,3.13,9.4,9.4,0,0,1-3.08,2.14A9.75,9.75,0,0,1,867.27,442.41Zm-5.66-9.79a7.21,7.21,0,0,0,.44,2.54,6.49,6.49,0,0,0,1.19,2,5.65,5.65,0,0,0,1.8,1.34,5.32,5.32,0,0,0,4.46,0,5.64,5.64,0,0,0,1.79-1.36,6.53,6.53,0,0,0,1.2-2,7.63,7.63,0,0,0,0-5.05,6.41,6.41,0,0,0-1.2-2.05,5.49,5.49,0,0,0-1.79-1.36,5.12,5.12,0,0,0-2.23-.49,4.9,4.9,0,0,0-2.2.51,5.67,5.67,0,0,0-1.79,1.37,6.74,6.74,0,0,0-1.21,2.05A6.83,6.83,0,0,0,861.61,432.62Z" transform="translate(0 13.27)"/><path class="cls-5" d="M898.66,442h-4V431.42a7,7,0,0,0-.85-3.89,2.89,2.89,0,0,0-2.52-1.22,4.88,4.88,0,0,0-1.74.33,6,6,0,0,0-1.63.92,7.07,7.07,0,0,0-1.36,1.42,6.48,6.48,0,0,0-.93,1.79V442h-4v-19h3.62v3.8a7.71,7.71,0,0,1,3.15-3,9.51,9.51,0,0,1,4.57-1.11,5.6,5.6,0,0,1,2.79.62,4.55,4.55,0,0,1,1.72,1.68,7.33,7.33,0,0,1,.89,2.47,16.36,16.36,0,0,1,.26,3Z" transform="translate(0 13.27)"/><path class="cls-5" d="M913,442.41a10.08,10.08,0,0,1-4-.78,9.44,9.44,0,0,1-3.1-2.12,9.61,9.61,0,0,1-2-3.12,10.11,10.11,0,0,1-.71-3.77,10.29,10.29,0,0,1,.71-3.79,9.64,9.64,0,0,1,2-3.15,9.2,9.2,0,0,1,3.1-2.14,10.17,10.17,0,0,1,4.06-.78,9.75,9.75,0,0,1,4,.8,9.62,9.62,0,0,1,3.07,2.12,9.21,9.21,0,0,1,1.94,3.08,10.39,10.39,0,0,1,.67,3.68,6.86,6.86,0,0,1,0,.81c0,.26,0,.47-.07.64H907.39a6.34,6.34,0,0,0,.6,2.28,6,6,0,0,0,1.27,1.76,5.37,5.37,0,0,0,1.77,1.14,5.51,5.51,0,0,0,2.09.4,6.37,6.37,0,0,0,1.57-.2,5.37,5.37,0,0,0,1.44-.58,5.17,5.17,0,0,0,1.16-.92,4.46,4.46,0,0,0,.79-1.2l3.41,1a7.88,7.88,0,0,1-3.24,3.5A10.12,10.12,0,0,1,913,442.41Zm5.77-11.28a6.76,6.76,0,0,0-.6-2.21,5.77,5.77,0,0,0-1.25-1.72,5.5,5.5,0,0,0-1.78-1.1,5.73,5.73,0,0,0-2.14-.4,5.72,5.72,0,0,0-3.88,1.5,5.72,5.72,0,0,0-1.23,1.72,6.74,6.74,0,0,0-.58,2.21Z" transform="translate(0 13.27)"/><path class="cls-5" d="M933.92,442.41a14.41,14.41,0,0,1-4.55-.75,11.32,11.32,0,0,1-3.89-2.12l1.59-2.53a14.75,14.75,0,0,0,3.37,1.86,9.37,9.37,0,0,0,3.41.64,5,5,0,0,0,2.81-.69,2.21,2.21,0,0,0,1-2,1.8,1.8,0,0,0-1.16-1.74,23,23,0,0,0-3.62-1.19c-1.19-.32-2.2-.62-3-.91a7.75,7.75,0,0,1-2.06-1,3.49,3.49,0,0,1-1.16-1.34,4.26,4.26,0,0,1-.37-1.85,5.62,5.62,0,0,1,.57-2.57,5.4,5.4,0,0,1,1.56-1.9,7,7,0,0,1,2.33-1.18,10,10,0,0,1,2.9-.4,12,12,0,0,1,4,.65,10.59,10.59,0,0,1,3.3,1.89l-1.71,2.39a8.87,8.87,0,0,0-5.61-2.1,4.83,4.83,0,0,0-2.56.63,2.2,2.2,0,0,0-1,2,2,2,0,0,0,.22,1,1.79,1.79,0,0,0,.7.69,5.71,5.71,0,0,0,1.27.53c.52.15,1.17.33,1.94.52,1.28.32,2.39.63,3.32.95a9.13,9.13,0,0,1,2.3,1.1,4.1,4.1,0,0,1,1.34,1.49,4.42,4.42,0,0,1,.43,2,5.13,5.13,0,0,1-2,4.3A8.93,8.93,0,0,1,933.92,442.41Z" transform="translate(0 13.27)"/><path class="cls-5" d="M961.62,419.9h-8.56V442H949V419.9h-8.59v-3.59h21.24Z" transform="translate(0 13.27)"/></g></g></svg>