<svg xmlns="http://www.w3.org/2000/svg" xmlns:xlink="http://www.w3.org/1999/xlink" viewBox="0 0 824.08 289.61"><defs><style>.cls-1{fill:none;}.cls-2{fill:url(#Degradado_sin_nombre_2);}.cls-3{fill:#f1f1f1;}.cls-4{fill:#ff7110;}.cls-5{fill:#706f71;}.cls-6{clip-path:url(#clip-path);}.cls-7{fill:url(#Degradado_sin_nombre_6);}.cls-8{clip-path:url(#clip-path-2);}.cls-9{fill:url(#Degradado_sin_nombre_3);}.cls-10{clip-path:url(#clip-path-3);}.cls-11{fill:url(#radial-gradient);}.cls-12{clip-path:url(#clip-path-4);}.cls-13{fill:url(#radial-gradient-2);}</style><linearGradient id="Degradado_sin_nombre_2" x1="4072.71" y1="-563.76" x2="4102.35" y2="-563.76" gradientTransform="matrix(-0.96, 0.28, 0.28, 0.96, 4392.74, -545.6)" gradientUnits="userSpaceOnUse"><stop offset="0.04" stop-color="#9f1c27"/><stop offset="0.1" stop-color="#a52128" stop-opacity="0.82"/><stop offset="0.21" stop-color="#ae272a" stop-opacity="0.57"/><stop offset="0.33" stop-color="#b62d2b" stop-opacity="0.36"/><stop offset="0.45" stop-color="#bc312d" stop-opacity="0.2"/><stop offset="0.57" stop-color="#c0342d" stop-opacity="0.09"/><stop offset="0.69" stop-color="#c2352e" stop-opacity="0.02"/><stop offset="0.84" stop-color="#c3362e" stop-opacity="0"/><stop offset="1" stop-color="#c84f24" stop-opacity="0"/></linearGradient><clipPath id="clip-path" transform="translate(0 13.27)"><path class="cls-1" d="M316.85,7.22c18.15,19.2,34.24,43.69,46.87,71.83l-3.4,2.5c-11.76-11.45-23-20.07-35.62-26,.82,4.79,1.47,9.52,1.85,13.32L228.64,49c12-19.3,35.25-38.23,62.55-47.59.4-.14.82-.27,1.23-.39,8.11-2.36,17.65-1,24.43,6.16"/></clipPath><radialGradient id="Degradado_sin_nombre_6" cx="6753.68" cy="-413.96" r="1.13" gradientTransform="translate(526325.76 -152129.97) rotate(167.37) scale(80.93)" gradientUnits="userSpaceOnUse"><stop offset="0" stop-color="#c3362e"/><stop offset="0.05" stop-color="#b82e2c"/><stop offset="0.15" stop-color="#aa2429"/><stop offset="0.27" stop-color="#a11e27"/><stop offset="0.48" stop-color="#9f1c27"/><stop offset="0.58" stop-color="#a81823"/><stop offset="0.86" stop-color="#bf0e1a"/><stop offset="0.89" stop-color="#c0131b"/><stop offset="0.93" stop-color="#c2201d"/><stop offset="0.97" stop-color="#c53720"/><stop offset="1" stop-color="#c84f24"/></radialGradient><clipPath id="clip-path-2" transform="translate(0 13.27)"><path class="cls-2" d="M324.7,55.55c.82,4.79,1.47,9.52,1.85,13.32L297.9,63.05,318.16,26.5c2.8,9.3,5.54,23.37,6.54,29.05"/></clipPath><linearGradient id="Degradado_sin_nombre_3" x1="6649.41" y1="-320.02" x2="6650.58" y2="-319.95" gradientTransform="translate(112932.56 40192.42) rotate(-157.63) scale(17.96)" gradientUnits="userSpaceOnUse"><stop offset="0.04" stop-color="#c3362e"/><stop offset="0.07" stop-color="#c3332c" stop-opacity="0.91"/><stop offset="0.17" stop-color="#c22927" stop-opacity="0.67"/><stop offset="0.27" stop-color="#c12123" stop-opacity="0.47"/><stop offset="0.37" stop-color="#c01a20" stop-opacity="0.3"/><stop offset="0.48" stop-color="#c0151d" stop-opacity="0.17"/><stop offset="0.59" stop-color="#bf111b" stop-opacity="0.07"/><stop offset="0.71" stop-color="#bf0f1a" stop-opacity="0.02"/><stop offset="0.84" stop-color="#bf0e1a" stop-opacity="0"/><stop offset="1" stop-color="#bf0e1a" stop-opacity="0"/></linearGradient><clipPath id="clip-path-3" transform="translate(0 13.27)"><path class="cls-1" d="M361.77,73.13a13,13,0,1,1-.76.21c.25-.08.5-.13.76-.21"/></clipPath><radialGradient id="radial-gradient" cx="6671.49" cy="-416.23" r="0.64" gradientTransform="translate(169931.37 -10522.66) rotate(179.99) scale(25.42)" gradientUnits="userSpaceOnUse"><stop offset="0" stop-color="#fff"/><stop offset="0.27" stop-color="#fcfcfc"/><stop offset="0.46" stop-color="#f4f3f3"/><stop offset="0.63" stop-color="#e5e4e3"/><stop offset="0.78" stop-color="#d1cfce"/><stop offset="0.92" stop-color="#b7b4b1"/><stop offset="1" stop-color="#a4a09d"/></radialGradient><clipPath id="clip-path-4" transform="translate(0 13.27)"><path class="cls-1" d="M226.93,49.28c10-2.29,29.15-2.94,52.54,1.48,16.47,3.12,36,10.43,45.15,16.27a20.31,20.31,0,0,1,7.11,9.28A55,55,0,0,1,334.66,97c-.32,3.8-5.66,5-5.72,4.49-.77-4.43-25.58-14.77-56.73-21s-57.38-6-59.75-2.21c-.45.8-3.6-2.17-3.14-4.79a46.28,46.28,0,0,1,7.62-17.77,14.74,14.74,0,0,1,8.55-6.16c.45-.13.93-.24,1.44-.34"/></clipPath><radialGradient id="radial-gradient-2" cx="6761.13" cy="-413.69" r="1.13" gradientTransform="matrix(-100.81, 0, 0, -100.81, 681915.49, -41687.64)" gradientUnits="userSpaceOnUse"><stop offset="0" stop-color="#fff"/><stop offset="0.67" stop-color="#fff"/><stop offset="0.76" stop-color="#fff"/><stop offset="0.81" stop-color="#faf9f9"/><stop offset="0.87" stop-color="#ebeae9"/><stop offset="0.94" stop-color="#d2d0ce"/><stop offset="1" stop-color="#bab6b4"/></radialGradient></defs><g id="Capa_2" data-name="Capa 2"><g id="Capa_1-2" data-name="Capa 1"><ellipse class="cls-3" cx="271.97" cy="85.56" rx="12.83" ry="63.79" transform="translate(136 349.44) rotate(-78.98)"/><path class="cls-4" d="M217.86,235.44c0-30.41,16.45-77.06,32.7-109.55a215.68,215.68,0,0,0-25.62-2.51C171.62,181.7,96.64,271.05,50.41,271.05c-21,0-50.41-18.11-50.41-48.11,0-56.23,110.39-106.85,201.83-106.85,5.41,0,11,0,16.24.43,26.24-25,52.28-54.15,68.1-71.65,10-11.25,18.33-21.25,18.54-26.25a4.52,4.52,0,0,0-2.5-4.37,1.77,1.77,0,0,1,1.25-.42c5,0,11.46,5.21,16,11.67,1.67,2.29,8.12,11.87,6,15.41C308,61.33,288.67,95.47,274.3,125.05c17.91,5.21,33.33,11.66,45.2,20,.63.42,0,2.5-1.46,1.67a188.16,188.16,0,0,0-45.82-16.87c-25.2,55.4-34.37,90.8-34.37,112,0,7.92.63,19.79,11.46,19.79,9.79,0,23.12-7.5,26-9.57,1.67-1.26,2.09-.21.84,1.66-3.75,5-14.37,16.24-22.08,16.24C228.27,270,217.86,248.77,217.86,235.44ZM211.4,123c-2.91,0-6-.2-8.74-.2-89.15.2-188.92,70.6-188.92,110.8,0,18.54,12.92,22.28,21.88,22.28C72.69,255.85,143.5,194,211.4,123Zm18.75-5.62c7.29.62,16,1.87,23.33,3.12,14.78-29.78,34.36-63.95,50-89.56C281.8,59.65,256.81,89.86,230.15,117.35Z" transform="translate(0 13.27)"/><path class="cls-5" d="M358.86,202.53c0,.62.2,1,1,1,4.37,0,39.57-28.53,67.27-55.4,1.46-1.45,3.12,0,2.08,1.46-4.58,6-14.57,17.49-28.32,31.87S362.4,219,356.15,219c-2.91,0-6-1.67-9.16-4.38-5-4.37-9.17-10.21-9-14.16a9.55,9.55,0,0,1,.84-3.34c2.28-6,8.74-17.07,17.07-29.78l-10.83,10.2C322,199,297.42,218.77,289.29,218.77c-5.83,0-18.74-12.7-19.57-22.49-.21-4.16,1.46-9.58,4.58-15.41,14.16-26.87,62.27-69.77,91.23-73.73a22.35,22.35,0,0,1,2.49-.21c9,0,17.91,6.46,21,13.13,17.7-24.59,37.07-52.49,44.77-66.65,4.59-8.54,6.46-15.42,2.71-17.3-.2,0,1.67-1.66,6.88,2.72,4.17,3.53,12.91,16,12.7,19a3.07,3.07,0,0,1-.41,1.25L402.8,133.8C401.55,135.46,358.86,193.78,358.86,202.53Zm-71.86.21a1.3,1.3,0,0,0,1.46,1.45c7.08,0,56.86-30.19,79.15-57.69,4.16-6,16-21.45,16-25.61,0-2.5-2.7-4.16-5-4.16-25.2,0-67.27,48.11-80.81,66.65C289.09,195.45,286.79,200.45,287,202.74Z" transform="translate(0 13.27)"/><path class="cls-5" d="M457.38,160.87c31.86-11,56.23-14.15,70.19-16.24,1.66-.2,1.25,1.46.21,1.87-11.46,3.76-31.87,7.5-59.57,19,9.58,4.16,17.7,9,17.7,15,0,5-1.87,10.62-11.25,18.34-15.83,12.08-40.61,22.69-59.77,22.69-11.66,0-25.2-13.95-23.33-21.24,2.08-7.7,19.79-20.83,40.61-29.36,6.25-2.71,12.5-5,18.34-7.51-11.88-4.16-24.59-8.33-24.59-17.9,0-17.29,41.87-39.37,65.61-39.37,12.5,0,22.5,12.29,22.29,18.11-.21,9.8-21.45,16.88-27.07,18.34-1.26.41-1.88-.84-1.26-1.46,3.75-3.75,19.79-16.66,19.37-21.25,0-.83-.83-1.87-3.54-1.87-20.82,0-60.19,25.42-60.19,35.2C441.13,156.5,454.25,159.63,457.38,160.87Zm5,7.09c-7.28,3.13-15,6.66-22.91,10.83-25.2,13.11-38.73,26.66-38.73,30.82,0,.63.83.63,1.66.63,9,0,31.87-11.25,48.53-21,9.17-5.21,17.08-11,18.54-14.78C470.92,171.09,467.17,169.62,462.37,168Z" transform="translate(0 13.27)"/><path class="cls-5" d="M622.12,140.26c-18.54,22.7-42.07,57.89-42.29,62.27,0,.62.22,1,1,1,4.37,0,39.57-28.53,67.27-55.4,1.46-1.45,3.13,0,2.08,1.46-4.58,6-14.58,17.49-28.32,31.87S583.37,219,577.12,219c-7.91,0-17.91-13.76-17.91-21.67,0-6.66,16.67-28.95,27.09-43.32-24.17,26-60,58.32-72.07,64.56a2.77,2.77,0,0,1-1,.21c-4,0-8.13-2.7-11.88-6.86-5-5.63-8.75-11.88-8.75-17.71,0-7.71,24.79-39.57,46.87-68.52,3.33-4.38,6.88-10,7.71-13.33.62-2.91-1.26-4.17-3.34-4.58.42-.21,4.17-1.67,9.16,2.91,8.75,7.92,10,16.66,9.79,19.58a2.88,2.88,0,0,1-.41,1.25S547.55,148.17,539.63,158c-16.24,20.21-27.9,38.75-27.9,42.9,0,.84.41,2.09,1.67,2.09,7.08,0,77.89-56.86,93.51-76.44,3.34-4.17,7.71-10.42,7.29-15.83a3.34,3.34,0,0,0-1.87-3.33c-.21,0,3.95-.84,8.95,3.75,7.92,7.29,10.2,14.79,10,17.7a3.16,3.16,0,0,1-.41,1.26S626.9,134.22,622.12,140.26Z" transform="translate(0 13.27)"/><path class="cls-5" d="M663.15,126.09c5.21-8.12,8.12-16,4.37-17.91-.2,0,1.67-1.67,6.88,2.7,4.16,3.55,10.83,12.93,10.83,16.46,0,4-21.25,30-37.71,52.7,8.34-10.21,18.54-21.24,27.92-30.83,8.75-9,44.36-41.24,52.48-41.24,1,0,2.5-.41,6.46,3.13,5.21,4.59,11.66,14.79,11.45,17.7a2.89,2.89,0,0,1-.42,1.26C730.63,144.84,716.05,165,704,183c8.75-11,19.58-23.12,29.57-33.52,8.33-8.55,43.74-39.38,53.32-41.87a5.23,5.23,0,0,1,2.71,0c1.67.41,3.34,1.88,5,3.54,4.16,4.16,11.45,15,11.24,17.7a3,3,0,0,1-.41,1.26s-15.2,17.49-23.12,27.27c-7.08,8.55-28.74,37.5-28.74,45.2,0,.62.21,1,1,1,4.58,0,39.16-28.32,67.27-55.4,1.46-1.45,2.92.21,1.88,1.66-4.59,5.84-15.62,18.75-28.12,31.67C782.08,195.24,757.5,219,750.83,219c-7.91,0-19-13.76-18.33-21.67a7.47,7.47,0,0,1,.42-2.08c5.21-14.16,33.33-50.61,53.94-77.06-5,2.29-26.66,13.54-49.15,36.45C720,172.54,694,199.62,691.47,210c.21.61.42,1,1,1.24,1.88.63-.41,2.08-2.7,1.67S676.89,200,678.35,193.78c4-16.65,30-50.39,49.36-76.43-4.58,1.87-24.37,13.54-48.11,37.07-18.75,18.74-55.81,57.7-50.61,60.81.21.21.21.21.42.21,1.87.63-.42,2.08-2.71,1.67s-12.08-12.92-11-19.16C617.74,186.29,646.69,151.3,663.15,126.09Z" transform="translate(0 13.27)"/><path class="cls-5" d="M313.64,241.73a6.39,6.39,0,0,0-1.41-1.19,12.79,12.79,0,0,0-2-1,13.5,13.5,0,0,0-2.4-.75,12.74,12.74,0,0,0-2.72-.29q-3.66,0-5.36,1.37a4.59,4.59,0,0,0-1.7,3.76,4.24,4.24,0,0,0,.48,2.12,4.17,4.17,0,0,0,1.53,1.43,11.71,11.71,0,0,0,2.58,1c1,.29,2.25.6,3.66.92a38.74,38.74,0,0,1,4.4,1.22,12.37,12.37,0,0,1,3.35,1.7,6.76,6.76,0,0,1,2.12,2.47,7.88,7.88,0,0,1,.73,3.58A8.14,8.14,0,0,1,316,262a7.76,7.76,0,0,1-2.41,2.74,10.38,10.38,0,0,1-3.6,1.59,18.79,18.79,0,0,1-4.5.51,20.78,20.78,0,0,1-6.86-1.13,19,19,0,0,1-5.9-3.29l1.9-3.35a10.5,10.5,0,0,0,1.83,1.5,15.38,15.38,0,0,0,2.56,1.35,20,20,0,0,0,3.09,1,15.71,15.71,0,0,0,3.47.37,9.68,9.68,0,0,0,5.21-1.19,4,4,0,0,0,1.85-3.58,4,4,0,0,0-.59-2.23,5.06,5.06,0,0,0-1.75-1.56,13.44,13.44,0,0,0-2.84-1.17c-1.14-.34-2.43-.69-3.87-1a35.7,35.7,0,0,1-4.19-1.24,11.33,11.33,0,0,1-3-1.59,5.85,5.85,0,0,1-1.83-2.25,7.48,7.48,0,0,1-.62-3.18,9,9,0,0,1,.84-4,8.28,8.28,0,0,1,2.34-2.91,10.12,10.12,0,0,1,3.58-1.79,16.19,16.19,0,0,1,14.79,3Z" transform="translate(0 13.27)"/><path class="cls-5" d="M331.57,266.94a11.37,11.37,0,0,1-10.77-7.37A12.46,12.46,0,0,1,320,255a12.3,12.3,0,0,1,3.24-8.39,11.42,11.42,0,0,1,3.67-2.6,11.17,11.17,0,0,1,4.7-1,11.43,11.43,0,0,1,8.41,3.57,12.3,12.3,0,0,1,3.24,8.39,12.46,12.46,0,0,1-.84,4.55,11.44,11.44,0,0,1-2.38,3.79,11.65,11.65,0,0,1-3.69,2.61A11.29,11.29,0,0,1,331.57,266.94Zm-7.64-11.88a9.2,9.2,0,0,0,.6,3.36,8.39,8.39,0,0,0,1.63,2.69,7.58,7.58,0,0,0,2.43,1.81,7,7,0,0,0,6,0,7.79,7.79,0,0,0,2.45-1.83,8.5,8.5,0,0,0,1.65-2.74,9.68,9.68,0,0,0,0-6.71,8.56,8.56,0,0,0-1.65-2.73,7.82,7.82,0,0,0-2.45-1.84,6.87,6.87,0,0,0-3-.66,6.62,6.62,0,0,0-3,.69,7.7,7.7,0,0,0-2.43,1.85,8.63,8.63,0,0,0-1.63,2.74A9.33,9.33,0,0,0,323.93,255.06Z" transform="translate(0 13.27)"/><path class="cls-5" d="M348,234.27h3.88v26.27a2.86,2.86,0,0,0,.68,2,2.55,2.55,0,0,0,1.93.73,5.34,5.34,0,0,0,1.14-.16,10.06,10.06,0,0,0,1.24-.37l.62,3.13a14.44,14.44,0,0,1-4.64.93,4.86,4.86,0,0,1-3.55-1.28A4.8,4.8,0,0,1,348,262Z" transform="translate(0 13.27)"/><path class="cls-5" d="M367.68,266.94a6.45,6.45,0,0,1-5.47-2.43q-1.86-2.43-1.86-7.24V243.45h3.89v13.07q0,7.07,4.9,7.07a7.47,7.47,0,0,0,4.48-1.53,8.93,8.93,0,0,0,3.11-4.17V243.45h3.89v18.28q0,1.36,1.23,1.41v3.36c-.44.06-.78.09-1,.11l-.73,0a2.8,2.8,0,0,1-1.92-.68,2.33,2.33,0,0,1-.82-1.7l-.09-2.7a10.67,10.67,0,0,1-4.06,4A11.2,11.2,0,0,1,367.68,266.94Z" transform="translate(0 13.27)"/><path class="cls-5" d="M385.56,254.93a12.55,12.55,0,0,1,.84-4.59,11.25,11.25,0,0,1,2.38-3.77,11.54,11.54,0,0,1,3.69-2.57,11.73,11.73,0,0,1,4.79-.94,11.12,11.12,0,0,1,5.94,1.52,9.87,9.87,0,0,1,3.77,4.08l-3.79,1.19a6.35,6.35,0,0,0-2.48-2.53,6.9,6.9,0,0,0-3.53-.91,7.28,7.28,0,0,0-3,.64,7.18,7.18,0,0,0-2.43,1.79,8.83,8.83,0,0,0-1.61,2.69,9.78,9.78,0,0,0,0,6.8,9.07,9.07,0,0,0,1.66,2.76,7.49,7.49,0,0,0,2.43,1.83,6.85,6.85,0,0,0,3,.67,7.34,7.34,0,0,0,2-.29,8,8,0,0,0,1.81-.77,7,7,0,0,0,1.43-1.13,3.8,3.8,0,0,0,.88-1.39l3.8,1.15a8.26,8.26,0,0,1-1.48,2.34,9.41,9.41,0,0,1-2.23,1.81,12.24,12.24,0,0,1-6.14,1.63,11.48,11.48,0,0,1-8.47-3.58,11.83,11.83,0,0,1-2.41-3.81A12.59,12.59,0,0,1,385.56,254.93Z" transform="translate(0 13.27)"/><path class="cls-5" d="M411.56,239.13v-4.86h3.89v4.86Zm0,27.37V243.45h3.89V266.5Z" transform="translate(0 13.27)"/><path class="cls-5" d="M431.78,266.94a11.32,11.32,0,0,1-4.74-1,11.45,11.45,0,0,1-3.67-2.61,11.72,11.72,0,0,1-2.36-3.79,12.71,12.71,0,0,1,0-9.14,12.12,12.12,0,0,1,2.39-3.8,11.38,11.38,0,0,1,3.66-2.6,11.23,11.23,0,0,1,4.7-1,11.43,11.43,0,0,1,8.42,3.57,12.1,12.1,0,0,1,2.38,3.8,12.71,12.71,0,0,1,0,9.14,11.44,11.44,0,0,1-2.38,3.79,11.65,11.65,0,0,1-3.69,2.61A11.33,11.33,0,0,1,431.78,266.94Zm-7.63-11.88a9.41,9.41,0,0,0,.59,3.36,8.41,8.41,0,0,0,1.64,2.69,7.65,7.65,0,0,0,2.42,1.81,7,7,0,0,0,6,0,7.68,7.68,0,0,0,2.45-1.83,8.52,8.52,0,0,0,1.66-2.74,9.68,9.68,0,0,0,0-6.71,8.58,8.58,0,0,0-1.66-2.73,7.71,7.71,0,0,0-2.45-1.84,6.84,6.84,0,0,0-3-.66,6.65,6.65,0,0,0-3,.69,7.77,7.77,0,0,0-2.42,1.85,8.65,8.65,0,0,0-1.64,2.74A9.55,9.55,0,0,0,424.15,255.06Z" transform="translate(0 13.27)"/><path class="cls-5" d="M468.16,266.5h-3.88V253.61q0-3.71-1.13-5.39a3.83,3.83,0,0,0-3.42-1.68,6.51,6.51,0,0,0-2.38.47,9.25,9.25,0,0,0-2.25,1.26,8.78,8.78,0,0,0-1.86,1.89,8.08,8.08,0,0,0-1.19,2.43V266.5h-3.89V243.45h3.54v5a10.12,10.12,0,0,1,3.95-3.89,11.27,11.27,0,0,1,5.63-1.45,6.9,6.9,0,0,1,3.31.72,5.68,5.68,0,0,1,2.12,2,9,9,0,0,1,1.12,3.06,21,21,0,0,1,.33,3.84Z" transform="translate(0 13.27)"/><path class="cls-5" d="M484.41,266.94a11.78,11.78,0,0,1-4.77-.95,11.24,11.24,0,0,1-3.71-2.58,11.68,11.68,0,0,1-2.4-3.82,12.76,12.76,0,0,1,0-9.21,11.56,11.56,0,0,1,6.16-6.38,11.76,11.76,0,0,1,4.76-.94,11.21,11.21,0,0,1,10.71,7.3,12.26,12.26,0,0,1,.82,4.44c0,.32,0,.62,0,.88a5.44,5.44,0,0,1-.07.62H476.77a9.08,9.08,0,0,0,.8,3.14,8,8,0,0,0,4.13,4,7,7,0,0,0,2.84.58,7.68,7.68,0,0,0,2.08-.29,9.33,9.33,0,0,0,1.9-.77,6.55,6.55,0,0,0,1.56-1.2,4.93,4.93,0,0,0,1-1.58l3.36.92a8.51,8.51,0,0,1-1.57,2.34,10.08,10.08,0,0,1-2.3,1.83,11.91,11.91,0,0,1-2.89,1.22A12.47,12.47,0,0,1,484.41,266.94Zm7.9-13.51a8.39,8.39,0,0,0-.81-3,8.06,8.06,0,0,0-1.73-2.37,7.84,7.84,0,0,0-2.4-1.52,8,8,0,0,0-5.83,0,7.55,7.55,0,0,0-2.41,1.55,7.7,7.7,0,0,0-1.67,2.36,8.62,8.62,0,0,0-.78,3Z" transform="translate(0 13.27)"/><path class="cls-5" d="M508.38,266.94a18,18,0,0,1-5.47-.86,13.6,13.6,0,0,1-4.64-2.49L500,261A16.52,16.52,0,0,0,504,263.3a12,12,0,0,0,4.28.77,7.11,7.11,0,0,0,4-1,3.18,3.18,0,0,0,1.48-2.81,2.48,2.48,0,0,0-.4-1.43,3.32,3.32,0,0,0-1.19-1,9.78,9.78,0,0,0-2-.79c-.83-.24-1.78-.49-2.87-.75-1.39-.36-2.58-.69-3.58-1a9.64,9.64,0,0,1-2.47-1.15,3.94,3.94,0,0,1-1.41-1.59,5.2,5.2,0,0,1-.44-2.29,6.64,6.64,0,0,1,.68-3.07,6.41,6.41,0,0,1,1.88-2.25,8.23,8.23,0,0,1,2.8-1.37,12.44,12.44,0,0,1,3.47-.46,14,14,0,0,1,4.85.83,12,12,0,0,1,3.8,2.21l-1.77,2.34a10.06,10.06,0,0,0-3.26-1.92,11.26,11.26,0,0,0-3.71-.64,6.68,6.68,0,0,0-3.6.91,3.12,3.12,0,0,0-1.48,2.89,2.74,2.74,0,0,0,.29,1.32,2.43,2.43,0,0,0,.95.93,7.7,7.7,0,0,0,1.7.71q1,.3,2.49.66c1.53.35,2.86.71,4,1.08a11.59,11.59,0,0,1,2.82,1.3,5,5,0,0,1,1.68,1.77,5.09,5.09,0,0,1,.55,2.47,6.1,6.1,0,0,1-2.47,5.12A10.66,10.66,0,0,1,508.38,266.94Z" transform="translate(0 13.27)"/><path class="cls-5" d="M555.18,238.69H544.36V266.5h-4V238.69H529.57v-3.54h25.61Z" transform="translate(0 13.27)"/><path class="cls-5" d="M564.36,266.94a11.84,11.84,0,0,1-4.77-.95,11.2,11.2,0,0,1-3.7-2.58,11.7,11.7,0,0,1-2.41-3.82,12.76,12.76,0,0,1,0-9.21,11.56,11.56,0,0,1,6.16-6.38,11.77,11.77,0,0,1,4.77-.94,11.32,11.32,0,0,1,4.74,1,11.48,11.48,0,0,1,3.65,2.58,11.35,11.35,0,0,1,2.31,3.75,12.26,12.26,0,0,1,.82,4.44c0,.32,0,.62,0,.88a5.44,5.44,0,0,1-.07.62H556.72a9.08,9.08,0,0,0,.8,3.14,8,8,0,0,0,1.72,2.42,7.89,7.89,0,0,0,2.41,1.59,7.05,7.05,0,0,0,2.85.58,7.66,7.66,0,0,0,2.07-.29,9.11,9.11,0,0,0,1.9-.77,6.61,6.61,0,0,0,1.57-1.2,4.9,4.9,0,0,0,1-1.58l3.36.92a8.29,8.29,0,0,1-1.57,2.34,10.24,10.24,0,0,1-2.29,1.83,12,12,0,0,1-2.9,1.22A12.47,12.47,0,0,1,564.36,266.94Zm7.91-13.51a8.4,8.4,0,0,0-.82-3,8.21,8.21,0,0,0-1.72-2.37,7.89,7.89,0,0,0-2.41-1.52,8,8,0,0,0-5.83,0,7.4,7.4,0,0,0-2.4,1.55,7.91,7.91,0,0,0-1.68,2.36,8.4,8.4,0,0,0-.77,3Z" transform="translate(0 13.27)"/><path class="cls-5" d="M578.71,254.93a12.55,12.55,0,0,1,.84-4.59,11.25,11.25,0,0,1,2.38-3.77,11.54,11.54,0,0,1,3.69-2.57,11.73,11.73,0,0,1,4.79-.94,11.15,11.15,0,0,1,5.94,1.52,9.87,9.87,0,0,1,3.77,4.08l-3.79,1.19a6.35,6.35,0,0,0-2.48-2.53,6.93,6.93,0,0,0-3.53-.91,7.28,7.28,0,0,0-3,.64,7.18,7.18,0,0,0-2.43,1.79,8.83,8.83,0,0,0-1.61,2.69,9.78,9.78,0,0,0,0,6.8,9.07,9.07,0,0,0,1.66,2.76,7.49,7.49,0,0,0,2.43,1.83,6.85,6.85,0,0,0,3,.67,7.34,7.34,0,0,0,2-.29,7.69,7.69,0,0,0,1.8-.77,6.79,6.79,0,0,0,1.44-1.13,3.8,3.8,0,0,0,.88-1.39l3.8,1.15a8.26,8.26,0,0,1-1.48,2.34,9.41,9.41,0,0,1-2.23,1.81,12.24,12.24,0,0,1-6.14,1.63,11.48,11.48,0,0,1-8.47-3.58,11.83,11.83,0,0,1-2.41-3.81A12.59,12.59,0,0,1,578.71,254.93Z" transform="translate(0 13.27)"/><path class="cls-5" d="M624.71,266.5h-3.88V253.61q0-3.71-1.13-5.39a3.83,3.83,0,0,0-3.42-1.68,6.51,6.51,0,0,0-2.38.47,9.5,9.5,0,0,0-2.26,1.26,9,9,0,0,0-1.85,1.89,8.08,8.08,0,0,0-1.19,2.43V266.5h-3.89V243.45h3.54v5a10.12,10.12,0,0,1,4-3.89,11.24,11.24,0,0,1,5.63-1.45,6.9,6.9,0,0,1,3.31.72,5.68,5.68,0,0,1,2.12,2,9,9,0,0,1,1.12,3.06,21,21,0,0,1,.33,3.84Z" transform="translate(0 13.27)"/><path class="cls-5" d="M640.83,266.94a11.26,11.26,0,0,1-8.41-3.58,11.57,11.57,0,0,1-2.37-3.79,12.66,12.66,0,0,1-.83-4.55,12.3,12.3,0,0,1,3.24-8.39,11.42,11.42,0,0,1,3.67-2.6,11.17,11.17,0,0,1,4.7-1,11.43,11.43,0,0,1,8.41,3.57,12.3,12.3,0,0,1,3.24,8.39,12.46,12.46,0,0,1-.84,4.55,11.44,11.44,0,0,1-2.38,3.79,11.65,11.65,0,0,1-3.69,2.61A11.32,11.32,0,0,1,640.83,266.94Zm-7.64-11.88a9.2,9.2,0,0,0,.6,3.36,8.39,8.39,0,0,0,1.63,2.69,7.58,7.58,0,0,0,2.43,1.81,7,7,0,0,0,6,0,7.9,7.9,0,0,0,2.45-1.83,8.5,8.5,0,0,0,1.65-2.74,9.68,9.68,0,0,0,0-6.71,8.56,8.56,0,0,0-1.65-2.73,7.94,7.94,0,0,0-2.45-1.84,6.87,6.87,0,0,0-3-.66,6.59,6.59,0,0,0-3,.69,7.7,7.7,0,0,0-2.43,1.85,8.63,8.63,0,0,0-1.63,2.74A9.33,9.33,0,0,0,633.19,255.06Z" transform="translate(0 13.27)"/><path class="cls-5" d="M657.29,234.27h3.89v26.27a2.86,2.86,0,0,0,.68,2,2.54,2.54,0,0,0,1.92.73,5.34,5.34,0,0,0,1.15-.16,10.06,10.06,0,0,0,1.24-.37l.62,3.13a14.44,14.44,0,0,1-4.64.93,4.48,4.48,0,0,1-4.86-4.86Z" transform="translate(0 13.27)"/><path class="cls-5" d="M679.9,266.94a11.37,11.37,0,0,1-10.77-7.37,12.46,12.46,0,0,1-.84-4.55,12.3,12.3,0,0,1,3.24-8.39,11.42,11.42,0,0,1,3.67-2.6,11.17,11.17,0,0,1,4.7-1,11.43,11.43,0,0,1,8.41,3.57,12.3,12.3,0,0,1,3.24,8.39,12.46,12.46,0,0,1-.84,4.55,11.28,11.28,0,0,1-2.38,3.79,11.65,11.65,0,0,1-3.69,2.61A11.29,11.29,0,0,1,679.9,266.94Zm-7.64-11.88a9.2,9.2,0,0,0,.6,3.36,8.39,8.39,0,0,0,1.63,2.69,7.58,7.58,0,0,0,2.43,1.81,7,7,0,0,0,6,0,7.79,7.79,0,0,0,2.45-1.83,8.32,8.32,0,0,0,1.65-2.74,9.68,9.68,0,0,0,0-6.71,8.38,8.38,0,0,0-1.65-2.73,7.82,7.82,0,0,0-2.45-1.84,6.87,6.87,0,0,0-3-.66,6.62,6.62,0,0,0-3,.69,7.7,7.7,0,0,0-2.43,1.85,8.63,8.63,0,0,0-1.63,2.74A9.33,9.33,0,0,0,672.26,255.06Zm8.3-15.45-2.56-.88,2.56-4.46h3.89Z" transform="translate(0 13.27)"/><path class="cls-5" d="M705.46,266.76a9.53,9.53,0,0,1-4.3-1,10.52,10.52,0,0,1-3.38-2.6,12.09,12.09,0,0,1-2.19-3.75,13,13,0,0,1-.77-4.42,13.81,13.81,0,0,1,.77-4.61,11.88,11.88,0,0,1,2.19-3.82,10.49,10.49,0,0,1,3.38-2.59,9.9,9.9,0,0,1,4.35-.94,8.89,8.89,0,0,1,5,1.41,12.91,12.91,0,0,1,3.57,3.57v-4.59h3.45v22.78a9.67,9.67,0,0,1-.93,4.35,9.29,9.29,0,0,1-2.52,3.16,11.12,11.12,0,0,1-3.73,1.94,15.39,15.39,0,0,1-4.57.66,13.19,13.19,0,0,1-6.38-1.34,11.82,11.82,0,0,1-4.08-3.73l2.25-2a8.66,8.66,0,0,0,3.53,3.05,11,11,0,0,0,4.68,1,10.42,10.42,0,0,0,3-.44,7.16,7.16,0,0,0,2.49-1.32,6.45,6.45,0,0,0,1.7-2.21,7.1,7.1,0,0,0,.64-3.14v-4.06a9.35,9.35,0,0,1-1.57,1.92,9.52,9.52,0,0,1-2,1.46,9.13,9.13,0,0,1-2.25.9A9.53,9.53,0,0,1,705.46,266.76Zm1.19-3.17a6.5,6.5,0,0,0,2.39-.45,8.61,8.61,0,0,0,2.12-1.17,7.49,7.49,0,0,0,1.63-1.65,5.18,5.18,0,0,0,.88-1.9V251.8a8.5,8.5,0,0,0-1.26-2.17,9.65,9.65,0,0,0-1.74-1.7,7.87,7.87,0,0,0-2.1-1.12,6.67,6.67,0,0,0-2.27-.4,6.56,6.56,0,0,0-3.16.75,7.53,7.53,0,0,0-2.36,2,9.2,9.2,0,0,0-1.5,2.8,9.93,9.93,0,0,0-.53,3.16,8.76,8.76,0,0,0,.62,3.27,8.62,8.62,0,0,0,1.68,2.69,8.12,8.12,0,0,0,2.49,1.83A7.08,7.08,0,0,0,706.65,263.59Z" transform="translate(0 13.27)"/><path class="cls-5" d="M723.83,239.13v-4.86h3.88v4.86Zm0,27.37V243.45h3.88V266.5Z" transform="translate(0 13.27)"/><path class="cls-5" d="M732.44,254.93a12.55,12.55,0,0,1,.83-4.59,11.27,11.27,0,0,1,2.39-3.77,11.61,11.61,0,0,1,3.68-2.57,11.77,11.77,0,0,1,4.79-.94,11.12,11.12,0,0,1,5.94,1.52,9.9,9.9,0,0,1,3.78,4.08l-3.8,1.19a6.33,6.33,0,0,0-2.47-2.53,7,7,0,0,0-3.53-.91,7.36,7.36,0,0,0-3,.64,7,7,0,0,0-2.42,1.79,8.86,8.86,0,0,0-1.62,2.69,9.56,9.56,0,0,0-.59,3.4,9.36,9.36,0,0,0,2.27,6.16,7.49,7.49,0,0,0,2.43,1.83,6.88,6.88,0,0,0,3,.67,7.24,7.24,0,0,0,2-.29,8,8,0,0,0,1.81-.77,7,7,0,0,0,1.43-1.13,3.83,3.83,0,0,0,.89-1.39l3.79,1.15a8.23,8.23,0,0,1-1.47,2.34,9.61,9.61,0,0,1-2.23,1.81,12.56,12.56,0,0,1-2.85,1.19,12.27,12.27,0,0,1-3.29.44,11.46,11.46,0,0,1-4.77-1,11.5,11.5,0,0,1-6.11-6.42A12.39,12.39,0,0,1,732.44,254.93Z" transform="translate(0 13.27)"/><path class="cls-5" d="M764.35,266.94a8.21,8.21,0,0,1-3-.55,7.74,7.74,0,0,1-2.45-1.52,7.29,7.29,0,0,1-1.64-2.28,6.89,6.89,0,0,1-.59-2.85,6,6,0,0,1,.7-2.89,6.66,6.66,0,0,1,2-2.23,10.27,10.27,0,0,1,3.09-1.45,13.54,13.54,0,0,1,3.91-.53,18.86,18.86,0,0,1,3.4.31,15.64,15.64,0,0,1,3,.83v-1.85a5.56,5.56,0,0,0-6.1-6.05,12.91,12.91,0,0,0-7.32,2.69l-1.29-2.51a16,16,0,0,1,9-3,9.85,9.85,0,0,1,7.08,2.42,9,9,0,0,1,2.54,6.85v9.4c0,.91.41,1.38,1.24,1.41v3.36l-1,.13a7.3,7.3,0,0,1-.84.05,2.47,2.47,0,0,1-1.83-.69,2.8,2.8,0,0,1-.82-1.65l-.08-1.64a10,10,0,0,1-3.91,3.16A12,12,0,0,1,764.35,266.94Zm1-2.91a9.54,9.54,0,0,0,3.86-.78A6.31,6.31,0,0,0,772,261.2a2.45,2.45,0,0,0,.84-1.72v-3.4a15.93,15.93,0,0,0-5.87-1.1,8.35,8.35,0,0,0-4.75,1.23,3.75,3.75,0,0,0-1.83,3.23,4.41,4.41,0,0,0,.37,1.81,4.31,4.31,0,0,0,1.06,1.45,5,5,0,0,0,1.61,1A5.45,5.45,0,0,0,765.37,264Z" transform="translate(0 13.27)"/><path class="cls-5" d="M791,266.94a18,18,0,0,1-5.48-.86,13.55,13.55,0,0,1-4.63-2.49l1.67-2.61a16.7,16.7,0,0,0,4.06,2.32,12.12,12.12,0,0,0,4.29.77,7.08,7.08,0,0,0,4-1,3.18,3.18,0,0,0,1.48-2.81,2.48,2.48,0,0,0-.4-1.43,3.32,3.32,0,0,0-1.19-1,9.78,9.78,0,0,0-2-.79c-.82-.24-1.78-.49-2.87-.75-1.38-.36-2.57-.69-3.57-1a9.56,9.56,0,0,1-2.48-1.15,4,4,0,0,1-1.41-1.59,5.34,5.34,0,0,1-.44-2.29,6.76,6.76,0,0,1,.68-3.07,6.51,6.51,0,0,1,1.88-2.25,8.32,8.32,0,0,1,2.8-1.37,12.49,12.49,0,0,1,3.47-.46,14.09,14.09,0,0,1,4.86.83,12,12,0,0,1,3.79,2.21l-1.76,2.34a10,10,0,0,0-3.27-1.92,11.22,11.22,0,0,0-3.71-.64,6.73,6.73,0,0,0-3.6.91,3.14,3.14,0,0,0-1.48,2.89,2.74,2.74,0,0,0,.29,1.32,2.43,2.43,0,0,0,1,.93,7.91,7.91,0,0,0,1.7.71q1,.3,2.49.66c1.53.35,2.87.71,4,1.08a11.59,11.59,0,0,1,2.82,1.3,5,5,0,0,1,1.68,1.77,5.09,5.09,0,0,1,.55,2.47,6.1,6.1,0,0,1-2.47,5.12A10.65,10.65,0,0,1,791,266.94Z" transform="translate(0 13.27)"/><g class="cls-6"><polygon class="cls-7" points="343.14 0 219.11 27.78 241.74 128.82 365.77 101.03 343.14 0"/></g><path class="cls-2" d="M324.7,55.55c.82,4.79,1.47,9.52,1.85,13.32L297.9,63.05,318.16,26.5c2.8,9.3,5.54,23.37,6.54,29.05" transform="translate(0 13.27)"/><g class="cls-8"><polygon class="cls-9" points="343.04 49.94 296.73 30.9 276.89 79.16 323.18 98.2 343.04 49.94"/></g><g class="cls-10"><rect class="cls-11" x="350.7" y="72.04" width="27.83" height="27.45" transform="translate(-9.93 94.99) rotate(-12.62)"/></g><g class="cls-12"><rect class="cls-13" x="209.43" y="34.5" width="123.11" height="86.66" transform="translate(-10.46 74.4) rotate(-12.63)"/></g></g></g></svg>