<svg xmlns="http://www.w3.org/2000/svg" viewBox="0 0 824.08 262.51"><defs><style>.cls-1{fill:#ff7110;}.cls-2{fill:#706f71;}</style></defs><g id="Capa_2" data-name="Capa 2"><g id="Capa_1-2" data-name="Capa 1"><path class="cls-1" d="M217.86,221.61c0-30.41,16.45-77.07,32.7-109.55a211.58,211.58,0,0,0-25.62-2.51C171.62,167.87,96.64,257.22,50.41,257.22,29.37,257.22,0,239.1,0,209.11c0-56.23,110.39-106.85,201.83-106.85,5.41,0,11,0,16.24.42,26.24-25,52.28-54.15,68.1-71.64,10-11.25,18.33-21.25,18.54-26.26a4.54,4.54,0,0,0-2.5-4.37A1.82,1.82,0,0,1,303.46,0c5,0,11.46,5.21,16,11.67,1.67,2.29,8.12,11.86,6,15.4C308,47.49,288.67,81.64,274.3,111.22c17.91,5.21,33.33,11.66,45.2,20,.63.43,0,2.5-1.46,1.67A188.16,188.16,0,0,0,272.22,116c-25.2,55.4-34.37,90.8-34.37,112.05,0,7.92.63,19.79,11.46,19.79,9.79,0,23.12-7.5,26-9.58,1.67-1.25,2.09-.21.84,1.67-3.75,5-14.37,16.24-22.08,16.24C228.27,256.18,217.86,234.94,217.86,221.61ZM211.4,109.14c-2.91,0-6-.21-8.74-.21-89.15.21-188.92,70.61-188.92,110.81,0,18.53,12.92,22.28,21.88,22.28C72.69,242,143.5,180.15,211.4,109.14Zm18.75-5.63c7.29.63,16,1.87,23.33,3.13,14.78-29.79,34.36-63.95,50-89.57C281.8,45.82,256.81,76,230.15,103.51Z"/><path class="cls-2" d="M358.86,188.7c0,.62.2,1,1,1,4.37,0,39.57-28.53,67.27-55.4,1.46-1.46,3.12,0,2.08,1.46-4.58,6-14.57,17.49-28.32,31.86s-38.53,37.49-44.78,37.49c-2.91,0-6-1.66-9.16-4.37-5-4.37-9.17-10.21-9-14.16a9.5,9.5,0,0,1,.84-3.34c2.28-6,8.74-17.07,17.07-29.79L345.11,163.7c-23.11,21.46-47.69,41.24-55.82,41.24-5.83,0-18.74-12.7-19.57-22.49-.21-4.17,1.46-9.58,4.58-15.41,14.16-26.87,62.27-69.78,91.23-73.73A22.35,22.35,0,0,1,368,93.1c9,0,17.91,6.46,21,13.12,17.7-24.58,37.07-52.49,44.77-66.65,4.59-8.53,6.46-15.41,2.71-17.29-.2,0,1.67-1.66,6.88,2.72,4.17,3.53,12.91,16,12.7,18.94a3.11,3.11,0,0,1-.41,1.26L402.8,120C401.55,121.63,358.86,180,358.86,188.7Zm-71.86.21a1.3,1.3,0,0,0,1.46,1.45c7.08,0,56.86-30.19,79.15-57.69,4.16-6,16-21.45,16-25.62,0-2.5-2.7-4.16-5-4.16-25.2,0-67.27,48.11-80.81,66.65C289.09,181.62,286.79,186.62,287,188.91Z"/><path class="cls-2" d="M457.38,147c31.86-11,56.23-14.16,70.19-16.24,1.66-.2,1.25,1.46.21,1.87-11.46,3.75-31.87,7.5-59.57,19,9.58,4.17,17.7,9,17.7,15,0,5-1.87,10.62-11.25,18.34-15.83,12.07-40.61,22.69-59.77,22.69-11.66,0-25.2-14-23.33-21.25,2.08-7.69,19.79-20.82,40.61-29.36,6.25-2.71,12.5-5,18.34-7.5-11.88-4.17-24.59-8.33-24.59-17.9,0-17.3,41.87-39.37,65.61-39.37,12.5,0,22.5,12.28,22.29,18.11-.21,9.8-21.45,16.88-27.07,18.34-1.26.41-1.88-.84-1.26-1.46,3.75-3.75,19.79-16.67,19.37-21.25,0-.83-.83-1.87-3.54-1.87-20.82,0-60.19,25.41-60.19,35.2C441.13,142.67,454.25,145.8,457.38,147Zm5,7.09c-7.28,3.12-15,6.66-22.91,10.82-25.2,13.12-38.73,26.66-38.73,30.83,0,.63.83.63,1.66.63,9,0,31.87-11.25,48.53-21,9.17-5.21,17.08-11,18.54-14.79C470.92,157.25,467.17,155.79,462.37,154.13Z"/><path class="cls-2" d="M622.12,126.43c-18.54,22.7-42.07,57.89-42.29,62.27,0,.62.22,1,1,1,4.37,0,39.57-28.53,67.27-55.4,1.46-1.46,3.13,0,2.08,1.46-4.58,6-14.58,17.49-28.32,31.86s-38.54,37.49-44.79,37.49c-7.91,0-17.91-13.75-17.91-21.66,0-6.66,16.67-29,27.09-43.32-24.17,26-60,58.32-72.07,64.56a2.77,2.77,0,0,1-1,.21c-4,0-8.13-2.7-11.88-6.87-5-5.63-8.75-11.87-8.75-17.7,0-7.71,24.79-39.57,46.87-68.52,3.33-4.38,6.88-10,7.71-13.33.62-2.92-1.26-4.17-3.34-4.59.42-.21,4.17-1.66,9.16,2.92,8.75,7.92,10,16.66,9.79,19.58a2.84,2.84,0,0,1-.41,1.24s-14.79,16.67-22.71,26.46c-16.24,20.2-27.9,38.74-27.9,42.9,0,.84.41,2.08,1.67,2.08,7.08,0,77.89-56.85,93.51-76.43,3.34-4.17,7.71-10.42,7.29-15.83a3.34,3.34,0,0,0-1.87-3.33c-.21,0,3.95-.84,8.95,3.74,7.92,7.29,10.2,14.8,10,17.71a3.07,3.07,0,0,1-.41,1.25S626.9,120.38,622.12,126.43Z"/><path class="cls-2" d="M663.15,112.26c5.21-8.12,8.12-16,4.37-17.91-.2,0,1.67-1.67,6.88,2.7,4.16,3.55,10.83,12.92,10.83,16.46,0,4-21.25,30-37.71,52.7,8.34-10.21,18.54-21.24,27.92-30.83,8.75-8.95,44.36-41.24,52.48-41.24,1,0,2.5-.42,6.46,3.12,5.21,4.59,11.66,14.8,11.45,17.71a2.81,2.81,0,0,1-.42,1.25c-14.78,14.78-29.36,35-41.44,52.9,8.75-11,19.58-23.12,29.57-33.53,8.33-8.54,43.74-39.37,53.32-41.87a5.35,5.35,0,0,1,2.71,0c1.67.42,3.34,1.88,5,3.54,4.16,4.17,11.45,15,11.24,17.71a2.92,2.92,0,0,1-.41,1.25s-15.2,17.49-23.12,27.28c-7.08,8.55-28.74,37.49-28.74,45.2,0,.62.21,1,1,1,4.58,0,39.16-28.33,67.27-55.4,1.46-1.46,2.92.21,1.88,1.66-4.59,5.84-15.62,18.75-28.12,31.66-13.53,13.75-38.11,37.49-44.78,37.49-7.91,0-19-13.75-18.33-21.66a7.33,7.33,0,0,1,.42-2.08c5.21-14.16,33.33-50.61,53.94-77.07-5,2.3-26.66,13.54-49.15,36.46-17.7,17.9-43.74,45-46.24,55.4.21.62.42,1,1,1.25,1.88.62-.41,2.08-2.7,1.67S676.89,186.2,678.35,180c4-16.66,30-50.4,49.36-76.44-4.58,1.87-24.37,13.54-48.11,37.08-18.75,18.74-55.81,57.7-50.61,60.81.21.21.21.21.42.21,1.87.63-.42,2.08-2.71,1.67s-12.08-12.92-11-19.16C617.74,172.46,646.69,137.46,663.15,112.26Z"/><path class="cls-2" d="M313.64,227.9a6.39,6.39,0,0,0-1.41-1.19,12,12,0,0,0-2-1,13.5,13.5,0,0,0-2.4-.75,12.74,12.74,0,0,0-2.72-.29q-3.66,0-5.36,1.37a4.56,4.56,0,0,0-1.7,3.75,4.21,4.21,0,0,0,.48,2.12,4.11,4.11,0,0,0,1.53,1.44,11.72,11.72,0,0,0,2.58,1q1.55.45,3.66.93a36.77,36.77,0,0,1,4.4,1.22,12.37,12.37,0,0,1,3.35,1.7,6.68,6.68,0,0,1,2.12,2.47,7.86,7.86,0,0,1,.73,3.57,8.18,8.18,0,0,1-.88,3.91,7.84,7.84,0,0,1-2.41,2.74,10.38,10.38,0,0,1-3.6,1.59,18.79,18.79,0,0,1-4.5.51,20.78,20.78,0,0,1-6.86-1.13,19.22,19.22,0,0,1-5.9-3.29l1.9-3.36a10.08,10.08,0,0,0,1.83,1.51,14.65,14.65,0,0,0,2.56,1.34,18.92,18.92,0,0,0,3.09,1,15.7,15.7,0,0,0,3.47.38,9.68,9.68,0,0,0,5.21-1.19,4,4,0,0,0,1.85-3.58,4,4,0,0,0-.59-2.23,5.19,5.19,0,0,0-1.75-1.57,13.44,13.44,0,0,0-2.84-1.17c-1.14-.33-2.43-.68-3.87-1a40,40,0,0,1-4.19-1.24,11.33,11.33,0,0,1-3-1.59,6,6,0,0,1-1.83-2.25,7.48,7.48,0,0,1-.62-3.18,9,9,0,0,1,.84-4,8.41,8.41,0,0,1,2.34-2.92,10.11,10.11,0,0,1,3.58-1.78,16.19,16.19,0,0,1,14.79,3Z"/><path class="cls-2" d="M331.57,253.11a11.49,11.49,0,0,1-4.75-1,11.3,11.3,0,0,1-3.66-2.61,11.43,11.43,0,0,1-2.36-3.8,12.4,12.4,0,0,1-.84-4.54,12.16,12.16,0,0,1,.86-4.59,12,12,0,0,1,2.38-3.8,11.45,11.45,0,0,1,3.67-2.61,11.32,11.32,0,0,1,4.7-1A11.39,11.39,0,0,1,340,232.8a12,12,0,0,1,2.38,3.8,12.16,12.16,0,0,1,.86,4.59,12.4,12.4,0,0,1-.84,4.54,11.48,11.48,0,0,1-2.38,3.8,11.65,11.65,0,0,1-3.69,2.61A11.44,11.44,0,0,1,331.57,253.11Zm-7.64-11.88a9.2,9.2,0,0,0,.6,3.36,8.5,8.5,0,0,0,1.63,2.69,7.58,7.58,0,0,0,2.43,1.81,7.06,7.06,0,0,0,6,0,7.79,7.79,0,0,0,2.45-1.83,8.5,8.5,0,0,0,1.65-2.74,9.35,9.35,0,0,0,.6-3.38,9.23,9.23,0,0,0-.6-3.33,8.6,8.6,0,0,0-1.65-2.74,7.79,7.79,0,0,0-2.45-1.83,6.87,6.87,0,0,0-3-.66,6.75,6.75,0,0,0-3,.68,7.88,7.88,0,0,0-2.43,1.86,8.69,8.69,0,0,0-1.63,2.73A9.39,9.39,0,0,0,323.93,241.23Z"/><path class="cls-2" d="M348,220.44h3.88v26.27a2.82,2.82,0,0,0,.68,2,2.51,2.51,0,0,0,1.93.73,5.26,5.26,0,0,0,1.14-.15,8.58,8.58,0,0,0,1.24-.38l.62,3.14a13.57,13.57,0,0,1-2.3.66,11.84,11.84,0,0,1-2.34.27,4.82,4.82,0,0,1-3.55-1.29,4.76,4.76,0,0,1-1.3-3.57Z"/><path class="cls-2" d="M367.68,253.11a6.45,6.45,0,0,1-5.47-2.43q-1.86-2.43-1.86-7.24V229.62h3.89v13.07q0,7.06,4.9,7.06a7.52,7.52,0,0,0,4.48-1.52,9,9,0,0,0,3.11-4.17V229.62h3.89V247.9q0,1.36,1.23,1.41v3.36l-1,.11-.73,0a2.76,2.76,0,0,1-1.92-.69,2.3,2.3,0,0,1-.82-1.7l-.09-2.69a10.67,10.67,0,0,1-4.06,4A11.31,11.31,0,0,1,367.68,253.11Z"/><path class="cls-2" d="M385.56,241.1a12.55,12.55,0,0,1,.84-4.59,11.39,11.39,0,0,1,2.38-3.78,11.49,11.49,0,0,1,8.48-3.51,11.12,11.12,0,0,1,5.94,1.53,9.81,9.81,0,0,1,3.77,4.08L403.18,236a6.38,6.38,0,0,0-2.48-2.54,7,7,0,0,0-3.53-.9,7.22,7.22,0,0,0-5.43,2.43,8.71,8.71,0,0,0-1.61,2.69,9.78,9.78,0,0,0,0,6.8,9.07,9.07,0,0,0,1.66,2.76,7.49,7.49,0,0,0,2.43,1.83,6.84,6.84,0,0,0,3,.66,7.33,7.33,0,0,0,2-.28,8,8,0,0,0,1.81-.78,7,7,0,0,0,1.43-1.12,3.8,3.8,0,0,0,.88-1.39l3.8,1.14a8,8,0,0,1-1.48,2.34,9.17,9.17,0,0,1-2.23,1.81,11.8,11.8,0,0,1-2.85,1.2,12.21,12.21,0,0,1-3.29.44,11.48,11.48,0,0,1-8.47-3.58,11.87,11.87,0,0,1-2.41-3.82A12.5,12.5,0,0,1,385.56,241.1Z"/><path class="cls-2" d="M411.56,225.29v-4.85h3.89v4.85Zm0,27.38v-23h3.89v23Z"/><path class="cls-2" d="M431.78,253.11a11.3,11.3,0,0,1-8.41-3.58,11.76,11.76,0,0,1-2.36-3.8,12.68,12.68,0,0,1,0-9.13,12,12,0,0,1,2.39-3.8,11.25,11.25,0,0,1,8.36-3.58,11.39,11.39,0,0,1,8.42,3.58,12,12,0,0,1,2.38,3.8,12.68,12.68,0,0,1,0,9.13,11.48,11.48,0,0,1-2.38,3.8,11.65,11.65,0,0,1-3.69,2.61A11.49,11.49,0,0,1,431.78,253.11Zm-7.63-11.88a9.41,9.41,0,0,0,.59,3.36,8.52,8.52,0,0,0,1.64,2.69,7.65,7.65,0,0,0,2.42,1.81,7.06,7.06,0,0,0,6,0,7.68,7.68,0,0,0,2.45-1.83,8.52,8.52,0,0,0,1.66-2.74,9.35,9.35,0,0,0,.6-3.38,9.23,9.23,0,0,0-.6-3.33,8.63,8.63,0,0,0-1.66-2.74,7.68,7.68,0,0,0-2.45-1.83,7,7,0,0,0-6,0,8,8,0,0,0-2.42,1.86,8.72,8.72,0,0,0-1.64,2.73A9.61,9.61,0,0,0,424.15,241.23Z"/><path class="cls-2" d="M468.16,252.67h-3.88v-12.9q0-3.71-1.13-5.38a3.83,3.83,0,0,0-3.42-1.68,6.7,6.7,0,0,0-2.38.46,9.25,9.25,0,0,0-2.25,1.26,8.83,8.83,0,0,0-1.86,1.9,8.08,8.08,0,0,0-1.19,2.43v13.91h-3.89v-23h3.54v4.94a10.17,10.17,0,0,1,3.95-3.88,11.28,11.28,0,0,1,5.63-1.46,6.9,6.9,0,0,1,3.31.73,5.66,5.66,0,0,1,2.12,2,9,9,0,0,1,1.12,3.07,21,21,0,0,1,.33,3.84Z"/><path class="cls-2" d="M484.41,253.11a11.78,11.78,0,0,1-4.77-1,11.39,11.39,0,0,1-3.71-2.58,11.78,11.78,0,0,1-2.4-3.82,12.39,12.39,0,0,1-.86-4.62,12.16,12.16,0,0,1,.86-4.59,11.56,11.56,0,0,1,6.16-6.38,11.76,11.76,0,0,1,4.76-.95,11.49,11.49,0,0,1,4.75,1,11.22,11.22,0,0,1,6,6.34A12.26,12.26,0,0,1,496,241c0,.32,0,.61,0,.88a5.73,5.73,0,0,1-.07.62H476.77a9,9,0,0,0,.8,3.13,8,8,0,0,0,1.72,2.43,7.89,7.89,0,0,0,2.41,1.59,7.17,7.17,0,0,0,2.84.57,7.67,7.67,0,0,0,2.08-.28,8.82,8.82,0,0,0,1.9-.78,6.51,6.51,0,0,0,1.56-1.19,4.86,4.86,0,0,0,1-1.59l3.36.93a8.81,8.81,0,0,1-1.57,2.34,10.08,10.08,0,0,1-2.3,1.83,11.91,11.91,0,0,1-2.89,1.22A12.47,12.47,0,0,1,484.41,253.11Zm7.9-13.51a8.5,8.5,0,0,0-.81-3,8.14,8.14,0,0,0-1.73-2.36,7.79,7.79,0,0,0-10.64,0,7.75,7.75,0,0,0-1.67,2.37,8.62,8.62,0,0,0-.78,3Z"/><path class="cls-2" d="M508.38,253.11a18,18,0,0,1-5.47-.86,13.61,13.61,0,0,1-4.64-2.5l1.68-2.6a16.52,16.52,0,0,0,4.06,2.32,12,12,0,0,0,4.28.77,7,7,0,0,0,4-1,3.17,3.17,0,0,0,1.48-2.8,2.46,2.46,0,0,0-.4-1.43,3.23,3.23,0,0,0-1.19-1,9.75,9.75,0,0,0-2-.8c-.83-.23-1.78-.48-2.87-.75-1.39-.35-2.58-.69-3.58-1a10,10,0,0,1-2.47-1.15,3.94,3.94,0,0,1-1.41-1.59,5.24,5.24,0,0,1-.44-2.3,6.45,6.45,0,0,1,2.56-5.32,8.4,8.4,0,0,1,2.8-1.36,12.44,12.44,0,0,1,3.47-.47,13.77,13.77,0,0,1,4.85.84,12,12,0,0,1,3.8,2.21l-1.77,2.34a10.06,10.06,0,0,0-3.26-1.92,11,11,0,0,0-3.71-.64,6.77,6.77,0,0,0-3.6.9,3.14,3.14,0,0,0-1.48,2.9,2.77,2.77,0,0,0,.29,1.32,2.57,2.57,0,0,0,.95.93,7.27,7.27,0,0,0,1.7.7c.69.21,1.52.43,2.49.67,1.53.35,2.86.71,4,1.08a11.59,11.59,0,0,1,2.82,1.3,4.66,4.66,0,0,1,2.23,4.24,6.11,6.11,0,0,1-2.47,5.12A10.66,10.66,0,0,1,508.38,253.11Z"/><path class="cls-2" d="M555.18,224.85H544.36v27.82h-4V224.85H529.57v-3.53h25.61Z"/><path class="cls-2" d="M564.36,253.11a11.84,11.84,0,0,1-4.77-1,11.35,11.35,0,0,1-3.7-2.58,11.81,11.81,0,0,1-2.41-3.82,12.59,12.59,0,0,1-.86-4.62,12.36,12.36,0,0,1,.86-4.59,11.4,11.4,0,0,1,2.43-3.79,11.61,11.61,0,0,1,3.73-2.59,11.78,11.78,0,0,1,4.77-.95,11.48,11.48,0,0,1,4.74,1,11.13,11.13,0,0,1,6,6.34,12.26,12.26,0,0,1,.82,4.44c0,.32,0,.61,0,.88a5.73,5.73,0,0,1-.07.62H556.72a9,9,0,0,0,.8,3.13,8.22,8.22,0,0,0,1.72,2.43,7.89,7.89,0,0,0,2.41,1.59,7.22,7.22,0,0,0,2.85.57,7.65,7.65,0,0,0,2.07-.28,8.62,8.62,0,0,0,1.9-.78,6.57,6.57,0,0,0,1.57-1.19,4.83,4.83,0,0,0,1-1.59l3.36.93a8.58,8.58,0,0,1-1.57,2.34,10.24,10.24,0,0,1-2.29,1.83,12,12,0,0,1-2.9,1.22A12.47,12.47,0,0,1,564.36,253.11Zm7.91-13.51a8.51,8.51,0,0,0-.82-3,8.3,8.3,0,0,0-1.72-2.36,7.92,7.92,0,0,0-8.24-1.52,7.54,7.54,0,0,0-2.4,1.54,8,8,0,0,0-1.68,2.37,8.4,8.4,0,0,0-.77,3Z"/><path class="cls-2" d="M578.71,241.1a12.55,12.55,0,0,1,.84-4.59,11.39,11.39,0,0,1,2.38-3.78,11.49,11.49,0,0,1,8.48-3.51,11.15,11.15,0,0,1,5.94,1.53,9.81,9.81,0,0,1,3.77,4.08L596.33,236a6.38,6.38,0,0,0-2.48-2.54,7,7,0,0,0-3.53-.9,7.22,7.22,0,0,0-5.43,2.43,8.71,8.71,0,0,0-1.61,2.69,9.78,9.78,0,0,0,0,6.8,9.07,9.07,0,0,0,1.66,2.76,7.49,7.49,0,0,0,2.43,1.83,6.84,6.84,0,0,0,3,.66,7.33,7.33,0,0,0,2-.28,7.71,7.71,0,0,0,1.8-.78,6.76,6.76,0,0,0,1.44-1.12,3.8,3.8,0,0,0,.88-1.39l3.8,1.14a8,8,0,0,1-1.48,2.34,9.17,9.17,0,0,1-2.23,1.81,11.8,11.8,0,0,1-2.85,1.2,12.21,12.21,0,0,1-3.29.44,11.48,11.48,0,0,1-8.47-3.58,11.87,11.87,0,0,1-2.41-3.82A12.5,12.5,0,0,1,578.71,241.1Z"/><path class="cls-2" d="M624.71,252.67h-3.88v-12.9q0-3.71-1.13-5.38a3.83,3.83,0,0,0-3.42-1.68,6.7,6.7,0,0,0-2.38.46,9.5,9.5,0,0,0-2.26,1.26,9,9,0,0,0-1.85,1.9,8.08,8.08,0,0,0-1.19,2.43v13.91h-3.89v-23h3.54v4.94a10.17,10.17,0,0,1,4-3.88,11.25,11.25,0,0,1,5.63-1.46,6.9,6.9,0,0,1,3.31.73,5.66,5.66,0,0,1,2.12,2,9,9,0,0,1,1.12,3.07,21,21,0,0,1,.33,3.84Z"/><path class="cls-2" d="M640.83,253.11a11.49,11.49,0,0,1-4.75-1,11.3,11.3,0,0,1-3.66-2.61,11.62,11.62,0,0,1-2.37-3.8,12.61,12.61,0,0,1-.83-4.54,12.16,12.16,0,0,1,.86-4.59,12,12,0,0,1,2.38-3.8,11.45,11.45,0,0,1,3.67-2.61,11.32,11.32,0,0,1,4.7-1,11.39,11.39,0,0,1,8.41,3.58,12,12,0,0,1,2.38,3.8,12.16,12.16,0,0,1,.86,4.59,12.4,12.4,0,0,1-.84,4.54,11.48,11.48,0,0,1-2.38,3.8,11.65,11.65,0,0,1-3.69,2.61A11.48,11.48,0,0,1,640.83,253.11Zm-7.64-11.88a9.2,9.2,0,0,0,.6,3.36,8.5,8.5,0,0,0,1.63,2.69,7.58,7.58,0,0,0,2.43,1.81,7.06,7.06,0,0,0,6,0,7.9,7.9,0,0,0,2.45-1.83,8.5,8.5,0,0,0,1.65-2.74,9.35,9.35,0,0,0,.6-3.38,9.23,9.23,0,0,0-.6-3.33,8.6,8.6,0,0,0-1.65-2.74,7.9,7.9,0,0,0-2.45-1.83,6.87,6.87,0,0,0-3-.66,6.72,6.72,0,0,0-3,.68,7.88,7.88,0,0,0-2.43,1.86,8.69,8.69,0,0,0-1.63,2.73A9.39,9.39,0,0,0,633.19,241.23Z"/><path class="cls-2" d="M657.29,220.44h3.89v26.27a2.82,2.82,0,0,0,.68,2,2.5,2.5,0,0,0,1.92.73,5.26,5.26,0,0,0,1.15-.15,8.58,8.58,0,0,0,1.24-.38l.62,3.14a13.57,13.57,0,0,1-2.3.66,11.84,11.84,0,0,1-2.34.27,4.49,4.49,0,0,1-4.86-4.86Z"/><path class="cls-2" d="M679.9,253.11a11.49,11.49,0,0,1-4.75-1,11.3,11.3,0,0,1-3.66-2.61,11.43,11.43,0,0,1-2.36-3.8,12.4,12.4,0,0,1-.84-4.54,12.16,12.16,0,0,1,.86-4.59,12,12,0,0,1,2.38-3.8,11.45,11.45,0,0,1,3.67-2.61,11.32,11.32,0,0,1,4.7-1,11.39,11.39,0,0,1,8.41,3.58,12,12,0,0,1,2.38,3.8,12.16,12.16,0,0,1,.86,4.59,12.4,12.4,0,0,1-.84,4.54,11.32,11.32,0,0,1-2.38,3.8,11.65,11.65,0,0,1-3.69,2.61A11.44,11.44,0,0,1,679.9,253.11Zm-7.64-11.88a9.2,9.2,0,0,0,.6,3.36,8.5,8.5,0,0,0,1.63,2.69,7.58,7.58,0,0,0,2.43,1.81,7.06,7.06,0,0,0,6,0,7.79,7.79,0,0,0,2.45-1.83,8.32,8.32,0,0,0,1.65-2.74,9.35,9.35,0,0,0,.6-3.38,9.23,9.23,0,0,0-.6-3.33,8.43,8.43,0,0,0-1.65-2.74,7.79,7.79,0,0,0-2.45-1.83,6.87,6.87,0,0,0-3-.66,6.75,6.75,0,0,0-3,.68,7.88,7.88,0,0,0-2.43,1.86,8.69,8.69,0,0,0-1.63,2.73A9.39,9.39,0,0,0,672.26,241.23Zm8.3-15.45L678,224.9l2.56-4.46h3.89Z"/><path class="cls-2" d="M705.46,252.93a9.53,9.53,0,0,1-4.3-1,10.69,10.69,0,0,1-3.38-2.61,12,12,0,0,1-2.19-3.75,12.87,12.87,0,0,1-.77-4.41,13.91,13.91,0,0,1,.77-4.62,11.83,11.83,0,0,1,2.19-3.81,10.49,10.49,0,0,1,3.38-2.59,9.91,9.91,0,0,1,4.35-.95,8.81,8.81,0,0,1,5,1.42,12.91,12.91,0,0,1,3.57,3.57v-4.59h3.45V252.4a9.67,9.67,0,0,1-.93,4.35,9.38,9.38,0,0,1-2.52,3.16,11.12,11.12,0,0,1-3.73,1.94,15.39,15.39,0,0,1-4.57.66,13.19,13.19,0,0,1-6.38-1.35,11.73,11.73,0,0,1-4.08-3.73l2.25-2a8.56,8.56,0,0,0,3.53,3,10.88,10.88,0,0,0,4.68,1,10.42,10.42,0,0,0,3-.44,7.18,7.18,0,0,0,2.49-1.33,6.41,6.41,0,0,0,1.7-2.2,7.13,7.13,0,0,0,.64-3.14v-4.06a9.35,9.35,0,0,1-1.57,1.92,9.89,9.89,0,0,1-2,1.46,9.63,9.63,0,0,1-4.68,1.21Zm1.19-3.18a6.49,6.49,0,0,0,2.39-.44,8.61,8.61,0,0,0,2.12-1.17,7.72,7.72,0,0,0,1.63-1.65,5.25,5.25,0,0,0,.88-1.9V238a8.61,8.61,0,0,0-1.26-2.16,9.33,9.33,0,0,0-1.74-1.7,7.87,7.87,0,0,0-2.1-1.12,6.67,6.67,0,0,0-2.27-.4,6.56,6.56,0,0,0-3.16.75,7.53,7.53,0,0,0-2.36,2,9.08,9.08,0,0,0-1.5,2.8,9.88,9.88,0,0,0-.53,3.16,8.86,8.86,0,0,0,2.3,6,8.12,8.12,0,0,0,2.49,1.83A7.22,7.22,0,0,0,706.65,249.75Z"/><path class="cls-2" d="M723.83,225.29v-4.85h3.88v4.85Zm0,27.38v-23h3.88v23Z"/><path class="cls-2" d="M732.44,241.1a12.55,12.55,0,0,1,.83-4.59,11.42,11.42,0,0,1,2.39-3.78,11.45,11.45,0,0,1,8.47-3.51,11.12,11.12,0,0,1,5.94,1.53,9.84,9.84,0,0,1,3.78,4.08l-3.8,1.19a6.36,6.36,0,0,0-2.47-2.54,7,7,0,0,0-3.53-.9,7.2,7.2,0,0,0-3,.64,7,7,0,0,0-2.42,1.79A8.74,8.74,0,0,0,737,237.7a9.52,9.52,0,0,0-.59,3.4,9.36,9.36,0,0,0,2.27,6.16,7.49,7.49,0,0,0,2.43,1.83,6.87,6.87,0,0,0,3,.66,7.23,7.23,0,0,0,2-.28,8,8,0,0,0,1.81-.78,7,7,0,0,0,1.43-1.12,3.83,3.83,0,0,0,.89-1.39l3.79,1.14a8,8,0,0,1-1.47,2.34,9.36,9.36,0,0,1-2.23,1.81,12.11,12.11,0,0,1-6.14,1.64,11.48,11.48,0,0,1-10.88-7.4A12.3,12.3,0,0,1,732.44,241.1Z"/><path class="cls-2" d="M764.35,253.11a8.42,8.42,0,0,1-3-.55,7.59,7.59,0,0,1-2.45-1.53,7.14,7.14,0,0,1-1.64-2.27,6.89,6.89,0,0,1-.59-2.85,6,6,0,0,1,.7-2.89,6.66,6.66,0,0,1,2-2.23,10.53,10.53,0,0,1,3.09-1.46,13.9,13.9,0,0,1,3.91-.53,19.81,19.81,0,0,1,3.4.31,16.35,16.35,0,0,1,3,.84V238.1a5.56,5.56,0,0,0-6.1-6,12.91,12.91,0,0,0-7.32,2.69l-1.29-2.51a15.91,15.91,0,0,1,9-3,9.81,9.81,0,0,1,7.08,2.43,9,9,0,0,1,2.54,6.84v9.41c0,.91.41,1.38,1.24,1.41v3.36l-1,.13a7.39,7.39,0,0,1-.84,0,2.51,2.51,0,0,1-1.83-.68,2.83,2.83,0,0,1-.82-1.66l-.08-1.63a10.13,10.13,0,0,1-3.91,3.16A12,12,0,0,1,764.35,253.11Zm1-2.92a9.54,9.54,0,0,0,3.86-.77,6.39,6.39,0,0,0,2.72-2,2.45,2.45,0,0,0,.84-1.72v-3.4a15.94,15.94,0,0,0-5.87-1.11,8.35,8.35,0,0,0-4.75,1.24,3.74,3.74,0,0,0-1.83,3.22,4.37,4.37,0,0,0,.37,1.81,4.25,4.25,0,0,0,1.06,1.46,5,5,0,0,0,1.61,1A5.45,5.45,0,0,0,765.37,250.19Z"/><path class="cls-2" d="M791,253.11a18,18,0,0,1-5.48-.86,13.57,13.57,0,0,1-4.63-2.5l1.67-2.6a16.7,16.7,0,0,0,4.06,2.32,12.12,12.12,0,0,0,4.29.77,7,7,0,0,0,4-1,3.17,3.17,0,0,0,1.48-2.8A2.46,2.46,0,0,0,796,245a3.23,3.23,0,0,0-1.19-1,9.75,9.75,0,0,0-2-.8c-.82-.23-1.78-.48-2.87-.75-1.38-.35-2.57-.69-3.57-1a9.9,9.9,0,0,1-2.48-1.15,4,4,0,0,1-1.41-1.59,5.39,5.39,0,0,1-.44-2.3,6.72,6.72,0,0,1,.68-3.06,6.64,6.64,0,0,1,1.88-2.26,8.49,8.49,0,0,1,2.8-1.36,12.49,12.49,0,0,1,3.47-.47,13.87,13.87,0,0,1,4.86.84,12,12,0,0,1,3.79,2.21l-1.76,2.34a10,10,0,0,0-3.27-1.92,11,11,0,0,0-3.71-.64,6.82,6.82,0,0,0-3.6.9,3.16,3.16,0,0,0-1.48,2.9,2.77,2.77,0,0,0,.29,1.32,2.57,2.57,0,0,0,1,.93,7.45,7.45,0,0,0,1.7.7c.69.21,1.52.43,2.49.67,1.53.35,2.87.71,4,1.08a11.59,11.59,0,0,1,2.82,1.3,5,5,0,0,1,1.68,1.77,5.07,5.07,0,0,1,.55,2.47,6.11,6.11,0,0,1-2.47,5.12A10.65,10.65,0,0,1,791,253.11Z"/></g></g></svg>