<svg xmlns="http://www.w3.org/2000/svg" viewBox="0 0 184.09 190.64"><defs><style>.cls-1{fill:#ccc;opacity:0.36;}.cls-2{fill:#ff7110;}.cls-3,.cls-5{fill:#fff;}.cls-3{opacity:0.2;}.cls-4{fill:#4f4f4f;}</style></defs><g id="Capa_2" data-name="Capa 2"><g id="Capa_1-2" data-name="Capa 1"><ellipse class="cls-1" cx="91.57" cy="99.44" rx="91.57" ry="91.2"/><circle class="cls-2" cx="92.19" cy="91.9" r="87.17"/><path class="cls-3" d="M81.09,163a103.3,103.3,0,0,0,52.09-17.48c17.49-11.93,29.28-29.38,35.37-49.54A159.2,159.2,0,0,0,174.44,63a87.16,87.16,0,0,1-143,91.41A113.52,113.52,0,0,0,81.09,163Z"/><path class="cls-4" d="M92.19,4.73A87.17,87.17,0,1,1,5,91.9,87.17,87.17,0,0,1,92.19,4.73m0-4.73a91.9,91.9,0,1,0,91.9,91.9A92,92,0,0,0,92.19,0Z"/><path class="cls-3" d="M23.89,57.56A95.19,95.19,0,0,1,58.26,21.62C63,18.76,67.32,26.18,62.59,29A86.67,86.67,0,0,0,31.3,61.89C28.67,66.75,21.25,62.42,23.89,57.56Z"/><path class="cls-3" d="M20.34,68c5.52,0,5.53,8.59,0,8.59S14.8,68,20.34,68Z"/><path class="cls-5" d="M150.57,79.71,109.86,39c-.36-.36-.72-1.1-1.18-.9s-.26,1-.26,1.55c0,6.92,0,13.84,0,20.76,0,1-.29,1.4-1.33,1.57a81.1,81.1,0,0,0-24.4,7.7,69.49,69.49,0,0,0-28,26.08,96.12,96.12,0,0,0-12,31.21c0,.16,0,.33-.08.6.67-.15.85-.69,1.13-1.07a72.65,72.65,0,0,1,13.12-13.62,67.49,67.49,0,0,1,24-12.06A94.54,94.54,0,0,1,101,97.64c2-.11,3.93-.14,5.9-.18,1.49,0,1.5,0,1.5,1.53v21.08c0,.32,0,.64,0,1s0,.54.22.66.43-.15.6-.31.46-.44.68-.66Q129.62,101,149.34,81.28c.39-.39.82-.76,1.23-1.15Z"/></g></g></svg>