<svg xmlns="http://www.w3.org/2000/svg" viewBox="0 0 168.34 174.33"><defs><style>.cls-1{isolation:isolate;}.cls-2,.cls-4{fill:#ccc;}.cls-2{opacity:0.36;}.cls-3{fill:#e6e6e6;}.cls-4{mix-blend-mode:multiply;opacity:0.3;}.cls-5{fill:#ff7110;}</style></defs><g class="cls-1"><g id="Capa_2" data-name="Capa 2"><g id="Capa_1-2" data-name="Capa 1"><ellipse class="cls-2" cx="83.73" cy="90.93" rx="83.73" ry="83.39"/><circle class="cls-3" cx="84.3" cy="84.03" r="79.71"/><path class="cls-4" d="M74.15,149a94.48,94.48,0,0,0,47.63-16c16-10.91,26.78-26.86,32.35-45.3a145.62,145.62,0,0,0,5.38-30.11A79.7,79.7,0,0,1,28.78,141.2,103.83,103.83,0,0,0,74.15,149Z"/><path class="cls-5" d="M84.3,4.32A79.72,79.72,0,1,1,4.59,84,79.71,79.71,0,0,1,84.3,4.32M84.3,0a84,84,0,1,0,84,84,84.13,84.13,0,0,0-84-84Z"/><path class="cls-4" d="M21.84,52.63A87.14,87.14,0,0,1,53.27,19.77c4.34-2.62,8.29,4.17,4,6.78a79.24,79.24,0,0,0-28.62,30C26.21,61,19.43,57.08,21.84,52.63Z"/><path class="cls-4" d="M18.6,62.17c5,0,5.06,7.85,0,7.85S13.54,62.17,18.6,62.17Z"/><path class="cls-5" d="M39,72.89,76.18,35.7c.33-.33.66-1,1.08-.83s.24.93.24,1.43c0,6.32,0,12.65,0,19,0,.91.26,1.28,1.21,1.43a74.31,74.31,0,0,1,22.31,7A63.59,63.59,0,0,1,126.64,87.6a87.93,87.93,0,0,1,11,28.54c0,.15,0,.3.07.55-.61-.14-.77-.63-1-1a65.89,65.89,0,0,0-12-12.46,61.7,61.7,0,0,0-22-11,85.48,85.48,0,0,0-18.4-2.94c-1.8-.1-3.59-.14-5.39-.17-1.37,0-1.37,0-1.37,1.4V109.8c0,.29,0,.58,0,.87s0,.49-.2.6-.39-.14-.55-.28l-.62-.61q-18-18-36-36c-.36-.36-.75-.7-1.12-1Z"/></g></g></g></svg>