<svg width="74" height="77" viewBox="0 0 74 77" fill="none" xmlns="http://www.w3.org/2000/svg">
<g id="flecha 1" clip-path="url(#clip0_2_700)">
<g id="Capa_1-2">
<path id="Vector" opacity="0.36" d="M37.1909 77C57.52 77 74 60.508 74 40.164C74 19.8201 57.52 3.32812 37.1909 3.32812C16.8618 3.32812 0.381866 19.8201 0.381866 40.164C0.381866 60.508 16.8618 77 37.1909 77Z" fill="#CCCCCC"/>
<path id="Vector_2" d="M36.9417 72.3268C56.294 72.3268 71.9821 56.5635 71.9821 37.1186C71.9821 17.6736 56.294 1.9104 36.9417 1.9104C17.5895 1.9104 1.90137 17.6736 1.90137 37.1186C1.90137 56.5635 17.5895 72.3268 36.9417 72.3268Z" fill="#DF6919"/>
<path id="Vector_3" opacity="0.2" d="M41.4037 65.816C33.951 65.3798 26.6431 62.9846 20.4647 58.7517C13.4341 53.9332 8.69478 46.8891 6.24673 38.7464C4.94835 34.4166 4.24891 29.9494 3.87909 25.4459C2.6008 29.1012 1.89734 33.0272 1.89734 37.1187C1.89734 56.5626 17.5865 72.3269 36.9377 72.3269C46.4324 72.3269 55.0347 68.5262 61.3458 62.3667C55.0508 64.9678 48.2051 66.2159 41.3996 65.816H41.4037Z" fill="white"/>
<path id="Vector_4" d="M36.9417 1.91046C56.2929 1.91046 71.9821 17.6748 71.9821 37.1187C71.9821 56.5625 56.2929 72.3268 36.9417 72.3268C17.5905 72.3268 1.90135 56.5625 1.90135 37.1187C1.90135 17.6748 17.5865 1.91046 36.9417 1.91046ZM36.9417 0C16.5735 0 0 16.6489 0 37.1187C0 57.5884 16.5735 74.2373 36.9417 74.2373C57.3099 74.2373 73.8834 57.5844 73.8834 37.1187C73.8834 16.6529 57.3099 0 36.9417 0Z" fill="#364F8E"/>
<path id="Vector_5" opacity="0.2" d="M64.3968 23.2487C61.1769 17.283 56.3613 12.2464 50.5808 8.73645C48.6754 7.58129 46.9389 10.5782 48.8403 11.7294C54.1343 14.9444 58.4676 19.5368 61.4181 24.9976C62.4793 26.9605 65.458 25.2116 64.3968 23.2487Z" fill="white"/>
<path id="Vector_6" opacity="0.2" d="M65.8238 27.4613C63.6049 27.4613 63.6008 30.9308 65.8238 30.9308C68.0467 30.9308 68.0467 27.4613 65.8238 27.4613Z" fill="white"/>
<path id="Vector_7" d="M13.4743 32.1951C18.9291 26.7182 24.3799 21.2413 29.8388 15.7643C29.9835 15.6189 30.1282 15.32 30.3131 15.4008C30.5302 15.4937 30.4176 15.8128 30.4176 16.0269C30.4216 18.8219 30.4297 21.6169 30.4176 24.4119C30.4176 24.8158 30.5342 24.9774 30.9482 25.042C34.3691 25.5872 37.6572 26.5687 40.7565 28.152C45.5119 30.5876 49.2342 34.1379 52.0239 38.6858C54.4157 42.5835 55.9191 46.8285 56.8436 51.2916C56.8557 51.3562 56.8637 51.4249 56.8758 51.534C56.6064 51.4734 56.5341 51.2553 56.4215 51.1018C54.89 49.0459 53.1575 47.192 51.1476 45.5966C48.2574 43.3065 45.0255 41.7151 41.484 40.7255C38.835 39.9864 36.1378 39.5784 33.3963 39.425C32.6044 39.3805 31.8165 39.3684 31.0286 39.3523C30.4257 39.3401 30.4257 39.3482 30.4257 39.9702C30.4257 42.8097 30.4257 45.6451 30.4257 48.4845C30.4257 48.6137 30.4257 48.7389 30.4257 48.8682C30.4216 48.9651 30.4458 49.0863 30.3372 49.1348C30.2247 49.1873 30.1644 49.0701 30.096 49.0096C30.0036 48.9247 29.9151 48.8318 29.8267 48.7389C24.5447 43.4317 19.2627 38.1244 13.9767 32.8171C13.816 32.6555 13.6471 32.5061 13.4823 32.3526C13.4823 32.2961 13.4823 32.2395 13.4823 32.183L13.4743 32.1951Z" fill="white"/>
</g>
</g>
<defs>
<clipPath id="clip0_2_700">
<rect width="74" height="77" fill="white"/>
</clipPath>
</defs>
</svg>
